<svg width="72" height="48" viewBox="0 0 72 48" fill="none" xmlns="http://www.w3.org/2000/svg">
<path d="M58.05 18.12C56.01 7.77 46.92 0 36 0C27.33 0 19.8 4.92 16.05 12.12C7.02 13.08 0 20.73 0 30C0 39.93 8.07 48 18 48H57C65.28 48 72 41.28 72 33C72 25.08 65.85 18.66 58.05 18.12ZM57 42H18C11.37 42 6 36.63 6 30C6 23.37 11.37 18 18 18H20.13C22.11 11.07 28.44 6 36 6C45.12 6 52.5 13.38 52.5 22.5V24H57C61.98 24 66 28.02 66 33C66 37.98 61.98 42 57 42Z" fill="url(#paint0_linear)"/>
<defs>
<linearGradient id="paint0_linear" x1="36" y1="0" x2="36" y2="48" gradientUnits="userSpaceOnUse">
<stop offset="0.9999" stop-color="#B1D4E0"/>
<stop offset="1" stop-color="white" stop-opacity="0"/>
</linearGradient>
</defs>
</svg>
