<svg width="40" height="40" viewBox="0 0 40 40" fill="none" xmlns="http://www.w3.org/2000/svg">
<path d="M20 0C16.0444 0 12.1776 1.17298 8.8886 3.37061C5.59962 5.56824 3.03617 8.69181 1.52242 12.3463C0.00866562 16.0009 -0.387401 20.0222 0.384303 23.9018C1.15601 27.7814 3.06082 31.3451 5.85787 34.1421C8.65492 36.9392 12.2186 38.844 16.0982 39.6157C19.9778 40.3874 23.9992 39.9913 27.6537 38.4776C31.3082 36.9638 34.4318 34.4004 36.6294 31.1114C38.827 27.8224 40 23.9556 40 20C40 14.6957 37.8929 9.60859 34.1421 5.85786C30.3914 2.10714 25.3043 0 20 0V0ZM19.875 6.6C20.3695 6.6 20.8528 6.74662 21.2639 7.02132C21.6751 7.29603 21.9955 7.68648 22.1847 8.14329C22.3739 8.60011 22.4234 9.10277 22.327 9.58772C22.2305 10.0727 21.9924 10.5181 21.6428 10.8678C21.2931 11.2174 20.8477 11.4555 20.3627 11.552C19.8778 11.6484 19.3751 11.5989 18.9183 11.4097C18.4615 11.2205 18.071 10.9 17.7963 10.4889C17.5216 10.0778 17.375 9.59445 17.375 9.1C17.375 8.43696 17.6384 7.80107 18.1072 7.33223C18.5761 6.86339 19.212 6.6 19.875 6.6V6.6ZM24.375 33.1625H15.625C15.1609 33.1625 14.7158 32.9781 14.3876 32.6499C14.0594 32.3217 13.875 31.8766 13.875 31.4125C13.875 30.9484 14.0594 30.5032 14.3876 30.1751C14.7158 29.8469 15.1609 29.6625 15.625 29.6625H18.25V18.1625H16.25C15.7859 18.1625 15.3408 17.9781 15.0126 17.6499C14.6844 17.3217 14.5 16.8766 14.5 16.4125C14.5 15.9484 14.6844 15.5032 15.0126 15.1751C15.3408 14.8469 15.7859 14.6625 16.25 14.6625H21.75V29.6625H24.375C24.8391 29.6625 25.2843 29.8469 25.6124 30.1751C25.9406 30.5032 26.125 30.9484 26.125 31.4125C26.125 31.8766 25.9406 32.3217 25.6124 32.6499C25.2843 32.9781 24.8391 33.1625 24.375 33.1625Z" fill="url(#paint0_linear)"/>
<defs>
<linearGradient id="paint0_linear" x1="20" y1="0" x2="20" y2="40" gradientUnits="userSpaceOnUse">
<stop offset="0.9999" stop-color="#B1D4E0"/>
<stop offset="1" stop-color="white" stop-opacity="0"/>
</linearGradient>
</defs>
</svg>
