<svg width="72" height="74" viewBox="0 0 72 74" fill="none" xmlns="http://www.w3.org/2000/svg">
<rect width="72" height="74" rx="5" fill="url(#paint0_linear)"/>
<rect width="72" height="74" rx="5" fill="url(#paint1_linear)"/>
<path d="M35.4958 21.9241C27.4489 21.9241 20.9257 28.449 20.9257 36.4935C20.9257 44.5424 27.4489 51.0672 35.4958 51.0672C43.5427 51.0672 50.066 44.5424 50.066 36.4935C50.066 28.449 43.5427 21.9241 35.4958 21.9241Z" fill="url(#paint2_linear)"/>
<path d="M35.4958 21.9241C27.4489 21.9241 20.9257 28.449 20.9257 36.4935C20.9257 44.5424 27.4489 51.0672 35.4958 51.0672C43.5427 51.0672 50.066 44.5424 50.066 36.4935C50.066 28.449 43.5427 21.9241 35.4958 21.9241Z" fill="url(#paint3_linear)"/>
<path d="M32.3619 19.27H38.6341C38.9241 19.27 39.1925 19.1271 39.3613 18.889C39.5258 18.6552 39.5648 18.3478 39.4652 18.075L36.327 9.58018C36.1971 9.22947 35.8681 9 35.4959 9C35.1236 9 34.7946 9.2338 34.6648 9.58018L31.5265 18.0794C31.427 18.3521 31.4659 18.6552 31.6304 18.8933C31.7992 19.1315 32.0719 19.27 32.3619 19.27Z" fill="url(#paint4_linear)"/>
<path d="M32.3619 19.27H38.6341C38.9241 19.27 39.1925 19.1271 39.3613 18.889C39.5258 18.6552 39.5648 18.3478 39.4652 18.075L36.327 9.58018C36.1971 9.22947 35.8681 9 35.4959 9C35.1236 9 34.7946 9.2338 34.6648 9.58018L31.5265 18.0794C31.427 18.3521 31.4659 18.6552 31.6304 18.8933C31.7992 19.1315 32.0719 19.27 32.3619 19.27Z" fill="url(#paint5_linear)"/>
<path d="M49.8929 26.5352C50.0574 26.704 50.2868 26.795 50.5162 26.795C50.5681 26.795 50.6201 26.7906 50.672 26.782C50.9577 26.73 51.1958 26.5438 51.3213 26.2797L55.1132 18.049C55.269 17.7113 55.1955 17.3173 54.9357 17.0532C54.6717 16.7891 54.2735 16.7198 53.9358 16.8713L45.7114 20.6685C45.4474 20.7897 45.2613 21.0321 45.2093 21.3179C45.1574 21.6037 45.2526 21.8938 45.4517 22.1016L49.8929 26.5352Z" fill="url(#paint6_linear)"/>
<path d="M49.8929 26.5352C50.0574 26.704 50.2868 26.795 50.5162 26.795C50.5681 26.795 50.6201 26.7906 50.672 26.782C50.9577 26.73 51.1958 26.5438 51.3213 26.2797L55.1132 18.049C55.269 17.7113 55.1955 17.3173 54.9357 17.0532C54.6717 16.7891 54.2735 16.7198 53.9358 16.8713L45.7114 20.6685C45.4474 20.7897 45.2613 21.0321 45.2093 21.3179C45.1574 21.6037 45.2526 21.8938 45.4517 22.1016L49.8929 26.5352Z" fill="url(#paint7_linear)"/>
<path d="M62.4113 35.6665L53.9099 32.5318C53.6372 32.4323 53.3341 32.4712 53.0961 32.6358C52.858 32.8003 52.7195 33.0687 52.7195 33.3588L52.7238 39.6325C52.7238 39.9226 52.8667 40.1954 53.1047 40.3599C53.2562 40.4595 53.4337 40.5158 53.6112 40.5158C53.7151 40.5158 53.819 40.4985 53.9185 40.4595L62.4199 37.3248C62.7662 37.1992 63 36.8659 63 36.4892C62.9913 36.1255 62.7619 35.7964 62.4113 35.6665Z" fill="url(#paint8_linear)"/>
<path d="M62.4113 35.6665L53.9099 32.5318C53.6372 32.4323 53.3341 32.4712 53.0961 32.6358C52.858 32.8003 52.7195 33.0687 52.7195 33.3588L52.7238 39.6325C52.7238 39.9226 52.8667 40.1954 53.1047 40.3599C53.2562 40.4595 53.4337 40.5158 53.6112 40.5158C53.7151 40.5158 53.819 40.4985 53.9185 40.4595L62.4199 37.3248C62.7662 37.1992 63 36.8659 63 36.4892C62.9913 36.1255 62.7619 35.7964 62.4113 35.6665Z" fill="url(#paint9_linear)"/>
<path d="M51.3213 46.7159C51.2615 46.5861 51.1712 46.4727 51.0582 46.3852C50.9452 46.2978 50.8127 46.2389 50.672 46.2137C50.3863 46.1661 50.092 46.257 49.8929 46.4605L45.456 50.8984C45.2526 51.1019 45.1573 51.3963 45.2093 51.6821C45.2612 51.9635 45.4474 52.2103 45.7114 52.3316L53.9401 56.1244C54.057 56.1806 54.1825 56.2023 54.3124 56.2023C54.5418 56.2023 54.7669 56.1114 54.9357 55.9425C55.1998 55.6784 55.269 55.2844 55.1132 54.9467L51.3213 46.7159Z" fill="url(#paint10_linear)"/>
<path d="M51.3213 46.7159C51.2615 46.5861 51.1712 46.4727 51.0582 46.3852C50.9452 46.2978 50.8127 46.2389 50.672 46.2137C50.3863 46.1661 50.092 46.257 49.8929 46.4605L45.456 50.8984C45.2526 51.1019 45.1573 51.3963 45.2093 51.6821C45.2612 51.9635 45.4474 52.2103 45.7114 52.3316L53.9401 56.1244C54.057 56.1806 54.1825 56.2023 54.3124 56.2023C54.5418 56.2023 54.7669 56.1114 54.9357 55.9425C55.1998 55.6784 55.269 55.2844 55.1132 54.9467L51.3213 46.7159Z" fill="url(#paint11_linear)"/>
<path d="M38.6298 53.7213L32.3576 53.7256C32.0676 53.7256 31.7992 53.8685 31.6348 54.1067C31.4703 54.3448 31.4313 54.6479 31.5265 54.9163L34.6648 63.4198C34.7947 63.7662 35.1236 64 35.4959 64C35.8682 64 36.1971 63.7662 36.327 63.4198L39.4652 54.9163C39.5648 54.6435 39.5258 54.3405 39.3614 54.1023C39.1925 53.8642 38.9242 53.7213 38.6298 53.7213Z" fill="url(#paint12_linear)"/>
<path d="M38.6298 53.7213L32.3576 53.7256C32.0676 53.7256 31.7992 53.8685 31.6348 54.1067C31.4703 54.3448 31.4313 54.6479 31.5265 54.9163L34.6648 63.4198C34.7947 63.7662 35.1236 64 35.4959 64C35.8682 64 36.1971 63.7662 36.327 63.4198L39.4652 54.9163C39.5648 54.6435 39.5258 54.3405 39.3614 54.1023C39.1925 53.8642 38.9242 53.7213 38.6298 53.7213Z" fill="url(#paint13_linear)"/>
<path d="M21.0988 46.4605C20.8953 46.257 20.6053 46.1661 20.3196 46.2137C20.0339 46.2657 19.7915 46.4518 19.6703 46.7159L15.8785 54.9467C15.7226 55.2844 15.7962 55.6827 16.0603 55.9425C16.188 56.0706 16.352 56.1564 16.5301 56.1881C16.7082 56.2199 16.8917 56.1961 17.0559 56.12L25.2846 52.3229C25.4144 52.2631 25.5278 52.1728 25.6152 52.0597C25.7026 51.9467 25.7615 51.8141 25.7867 51.6734C25.8386 51.3877 25.7434 51.0976 25.54 50.8941L21.0988 46.4605Z" fill="url(#paint14_linear)"/>
<path d="M21.0988 46.4605C20.8953 46.257 20.6053 46.1661 20.3196 46.2137C20.0339 46.2657 19.7915 46.4518 19.6703 46.7159L15.8785 54.9467C15.7226 55.2844 15.7962 55.6827 16.0603 55.9425C16.188 56.0706 16.352 56.1564 16.5301 56.1881C16.7082 56.2199 16.8917 56.1961 17.0559 56.12L25.2846 52.3229C25.4144 52.2631 25.5278 52.1728 25.6152 52.0597C25.7026 51.9467 25.7615 51.8141 25.7867 51.6734C25.8386 51.3877 25.7434 51.0976 25.54 50.8941L21.0988 46.4605Z" fill="url(#paint15_linear)"/>
<path d="M17.3892 40.5201C17.5667 40.5201 17.7442 40.4638 17.8957 40.3599C18.1337 40.1954 18.2766 39.9226 18.2766 39.6325L18.2723 33.3588C18.2723 33.2162 18.2379 33.0757 18.172 32.9493C18.1061 32.8229 18.0107 32.7143 17.8938 32.6326C17.7769 32.551 17.6421 32.4988 17.5007 32.4805C17.3594 32.4622 17.2157 32.4783 17.0819 32.5275L8.58047 35.6665C8.41025 35.7289 8.2633 35.8421 8.15948 35.9908C8.05567 36.1395 8 36.3165 8 36.4978C8 36.6792 8.05567 36.8561 8.15948 37.0048C8.2633 37.1535 8.41025 37.2667 8.58047 37.3291L17.0862 40.4638C17.1858 40.5028 17.2853 40.5201 17.3892 40.5201Z" fill="url(#paint16_linear)"/>
<path d="M17.3892 40.5201C17.5667 40.5201 17.7442 40.4638 17.8957 40.3599C18.1337 40.1954 18.2766 39.9226 18.2766 39.6325L18.2723 33.3588C18.2723 33.2162 18.2379 33.0757 18.172 32.9493C18.1061 32.8229 18.0107 32.7143 17.8938 32.6326C17.7769 32.551 17.6421 32.4988 17.5007 32.4805C17.3594 32.4622 17.2157 32.4783 17.0819 32.5275L8.58047 35.6665C8.41025 35.7289 8.2633 35.8421 8.15948 35.9908C8.05567 36.1395 8 36.3165 8 36.4978C8 36.6792 8.05567 36.8561 8.15948 37.0048C8.2633 37.1535 8.41025 37.2667 8.58047 37.3291L17.0862 40.4638C17.1858 40.5028 17.2853 40.5201 17.3892 40.5201Z" fill="url(#paint17_linear)"/>
<path d="M19.6747 26.2798C19.7347 26.4095 19.8251 26.5228 19.9382 26.6101C20.0513 26.6974 20.1839 26.7561 20.3245 26.7812C20.4652 26.8063 20.6098 26.797 20.7462 26.7542C20.8825 26.7114 21.0065 26.6362 21.1075 26.5352L25.54 22.0973C25.7435 21.8895 25.8344 21.5994 25.7824 21.3136C25.7305 21.0322 25.5444 20.7897 25.2803 20.6685L17.0473 16.8757C16.7096 16.7198 16.3157 16.7934 16.0517 17.0575C15.7876 17.3216 15.7184 17.7156 15.8742 18.0534L19.6747 26.2798Z" fill="url(#paint18_linear)"/>
<path d="M19.6747 26.2798C19.7347 26.4095 19.8251 26.5228 19.9382 26.6101C20.0513 26.6974 20.1839 26.7561 20.3245 26.7812C20.4652 26.8063 20.6098 26.797 20.7462 26.7542C20.8825 26.7114 21.0065 26.6362 21.1075 26.5352L25.54 22.0973C25.7435 21.8895 25.8344 21.5994 25.7824 21.3136C25.7305 21.0322 25.5444 20.7897 25.2803 20.6685L17.0473 16.8757C16.7096 16.7198 16.3157 16.7934 16.0517 17.0575C15.7876 17.3216 15.7184 17.7156 15.8742 18.0534L19.6747 26.2798Z" fill="url(#paint19_linear)"/>
<defs>
<linearGradient id="paint0_linear" x1="36" y1="0" x2="36" y2="74" gradientUnits="userSpaceOnUse">
<stop offset="0.9999" stop-color="#1C3F60"/>
<stop offset="1" stop-color="white" stop-opacity="0"/>
</linearGradient>
<linearGradient id="paint1_linear" x1="36" y1="0" x2="36" y2="74" gradientUnits="userSpaceOnUse">
<stop offset="0.9999" stop-color="#0B1320"/>
<stop offset="1" stop-color="white" stop-opacity="0"/>
</linearGradient>
<linearGradient id="paint2_linear" x1="35.4958" y1="21.9241" x2="35.4958" y2="51.0672" gradientUnits="userSpaceOnUse">
<stop stop-color="#FF0000"/>
<stop offset="1" stop-color="white" stop-opacity="0"/>
</linearGradient>
<linearGradient id="paint3_linear" x1="35.4958" y1="21.9241" x2="35.4958" y2="51.0672" gradientUnits="userSpaceOnUse">
<stop offset="0.9999" stop-color="#C2FBFF"/>
<stop offset="1" stop-color="white" stop-opacity="0"/>
</linearGradient>
<linearGradient id="paint4_linear" x1="35.4959" y1="9" x2="35.4959" y2="19.27" gradientUnits="userSpaceOnUse">
<stop stop-color="#FF0000"/>
<stop offset="1" stop-color="white" stop-opacity="0"/>
</linearGradient>
<linearGradient id="paint5_linear" x1="35.4959" y1="9" x2="35.4959" y2="19.27" gradientUnits="userSpaceOnUse">
<stop offset="0.9999" stop-color="#C2FBFF"/>
<stop offset="1" stop-color="white" stop-opacity="0"/>
</linearGradient>
<linearGradient id="paint6_linear" x1="50.1948" y1="16.7922" x2="50.1948" y2="26.795" gradientUnits="userSpaceOnUse">
<stop stop-color="#FF0000"/>
<stop offset="1" stop-color="white" stop-opacity="0"/>
</linearGradient>
<linearGradient id="paint7_linear" x1="50.1948" y1="16.7922" x2="50.1948" y2="26.795" gradientUnits="userSpaceOnUse">
<stop offset="0.9999" stop-color="#C2FBFF"/>
<stop offset="1" stop-color="white" stop-opacity="0"/>
</linearGradient>
<linearGradient id="paint8_linear" x1="57.8597" y1="32.4775" x2="57.8597" y2="40.5158" gradientUnits="userSpaceOnUse">
<stop stop-color="#FF0000"/>
<stop offset="1" stop-color="white" stop-opacity="0"/>
</linearGradient>
<linearGradient id="paint9_linear" x1="57.8597" y1="32.4775" x2="57.8597" y2="40.5158" gradientUnits="userSpaceOnUse">
<stop offset="0.9999" stop-color="#C2FBFF"/>
<stop offset="1" stop-color="white" stop-opacity="0"/>
</linearGradient>
<linearGradient id="paint10_linear" x1="50.1954" y1="46.2013" x2="50.1954" y2="56.2023" gradientUnits="userSpaceOnUse">
<stop stop-color="#FF0000"/>
<stop offset="1" stop-color="white" stop-opacity="0"/>
</linearGradient>
<linearGradient id="paint11_linear" x1="50.1954" y1="46.2013" x2="50.1954" y2="56.2023" gradientUnits="userSpaceOnUse">
<stop offset="0.9999" stop-color="#C2FBFF"/>
<stop offset="1" stop-color="white" stop-opacity="0"/>
</linearGradient>
<linearGradient id="paint12_linear" x1="35.4975" y1="53.7213" x2="35.4975" y2="64" gradientUnits="userSpaceOnUse">
<stop stop-color="#FF0000"/>
<stop offset="1" stop-color="white" stop-opacity="0"/>
</linearGradient>
<linearGradient id="paint13_linear" x1="35.4975" y1="53.7213" x2="35.4975" y2="64" gradientUnits="userSpaceOnUse">
<stop offset="0.9999" stop-color="#C2FBFF"/>
<stop offset="1" stop-color="white" stop-opacity="0"/>
</linearGradient>
<linearGradient id="paint14_linear" x1="20.7991" y1="46.2013" x2="20.7991" y2="56.2018" gradientUnits="userSpaceOnUse">
<stop stop-color="#FF0000"/>
<stop offset="1" stop-color="white" stop-opacity="0"/>
</linearGradient>
<linearGradient id="paint15_linear" x1="20.7991" y1="46.2013" x2="20.7991" y2="56.2018" gradientUnits="userSpaceOnUse">
<stop offset="0.9999" stop-color="#C2FBFF"/>
<stop offset="1" stop-color="white" stop-opacity="0"/>
</linearGradient>
<linearGradient id="paint16_linear" x1="13.1383" y1="32.4732" x2="13.1383" y2="40.5201" gradientUnits="userSpaceOnUse">
<stop stop-color="#FF0000"/>
<stop offset="1" stop-color="white" stop-opacity="0"/>
</linearGradient>
<linearGradient id="paint17_linear" x1="13.1383" y1="32.4732" x2="13.1383" y2="40.5201" gradientUnits="userSpaceOnUse">
<stop offset="0.9999" stop-color="#C2FBFF"/>
<stop offset="1" stop-color="white" stop-opacity="0"/>
</linearGradient>
<linearGradient id="paint18_linear" x1="20.7944" y1="16.7947" x2="20.7944" y2="26.795" gradientUnits="userSpaceOnUse">
<stop stop-color="#FF0000"/>
<stop offset="1" stop-color="white" stop-opacity="0"/>
</linearGradient>
<linearGradient id="paint19_linear" x1="20.7944" y1="16.7947" x2="20.7944" y2="26.795" gradientUnits="userSpaceOnUse">
<stop offset="0.9999" stop-color="#C2FBFF"/>
<stop offset="1" stop-color="white" stop-opacity="0"/>
</linearGradient>
</defs>
</svg>
