<svg width="48" height="39" viewBox="0 0 48 39" fill="none" xmlns="http://www.w3.org/2000/svg">
<path d="M37.5 31.5V36H10.5V22.245L15.885 27.615L18 25.5L9 16.5L0 25.5L2.115 27.615L7.5 22.245V36C7.5 36.7956 7.81607 37.5587 8.37868 38.1213C8.94129 38.6839 9.70435 39 10.5 39H37.5C38.2956 39 39.0587 38.6839 39.6213 38.1213C40.1839 37.5587 40.5 36.7956 40.5 36V31.5H37.5Z" fill="url(#paint0_linear)"/>
<path d="M40.5 7.5V21.255L45.885 15.885L48 18L39 27L30 18L32.115 15.885L37.5 21.255V7.5H19.5V4.5H37.5C38.2956 4.5 39.0587 4.81607 39.6213 5.37868C40.1839 5.94129 40.5 6.70435 40.5 7.5Z" fill="url(#paint1_linear)"/>
<path d="M12 12H6C5.20435 12 4.44129 11.6839 3.87868 11.1213C3.31607 10.5587 3 9.79565 3 9V3C3 2.20435 3.31607 1.44129 3.87868 0.87868C4.44129 0.31607 5.20435 0 6 0H12C12.7956 0 13.5587 0.31607 14.1213 0.87868C14.6839 1.44129 15 2.20435 15 3V9C15 9.79565 14.6839 10.5587 14.1213 11.1213C13.5587 11.6839 12.7956 12 12 12ZM6 3V9H12V3H6Z" fill="url(#paint2_linear)"/>
<defs>
<linearGradient id="paint0_linear" x1="20.25" y1="16.5" x2="20.25" y2="39" gradientUnits="userSpaceOnUse">
<stop offset="0.9999" stop-color="#B1D4E0"/>
<stop offset="1" stop-color="white" stop-opacity="0"/>
</linearGradient>
<linearGradient id="paint1_linear" x1="33.75" y1="4.5" x2="33.75" y2="27" gradientUnits="userSpaceOnUse">
<stop offset="0.9999" stop-color="#B1D4E0"/>
<stop offset="1" stop-color="white" stop-opacity="0"/>
</linearGradient>
<linearGradient id="paint2_linear" x1="9" y1="0" x2="9" y2="12" gradientUnits="userSpaceOnUse">
<stop offset="0.9999" stop-color="#B1D4E0"/>
<stop offset="1" stop-color="white" stop-opacity="0"/>
</linearGradient>
</defs>
</svg>
