<svg width="42" height="41" viewBox="0 0 42 41" fill="none" xmlns="http://www.w3.org/2000/svg">
<path d="M20.7708 40.625C23.0625 40.625 24.9375 38.75 24.9375 36.4583H16.6042C16.6042 38.75 18.4792 40.625 20.7708 40.625ZM33.2708 28.125V17.7083C33.2708 11.3125 29.875 5.95833 23.8958 4.54167V3.125C23.8958 1.39583 22.5 0 20.7708 0C19.0417 0 17.6458 1.39583 17.6458 3.125V4.54167C11.6875 5.95833 8.27083 11.2917 8.27083 17.7083V28.125L4.10417 32.2917V34.375H37.4375V32.2917L33.2708 28.125ZM29.1042 30.2083H12.4375V17.7083C12.4375 12.5417 15.5833 8.33333 20.7708 8.33333C25.9583 8.33333 29.1042 12.5417 29.1042 17.7083V30.2083ZM11.5625 3.29167L8.58333 0.3125C3.58333 4.125 0.291667 10 0 16.6667H4.16667C4.31424 14.0246 5.05589 11.4499 6.33639 9.13414C7.61689 6.81841 9.40326 4.82136 11.5625 3.29167V3.29167ZM37.375 16.6667H41.5417C41.2292 10 37.9375 4.125 32.9583 0.3125L30 3.29167C32.15 4.82889 33.9284 6.82815 35.2046 9.14263C36.4808 11.4571 37.2224 14.0281 37.375 16.6667Z" fill="url(#paint0_linear)"/>
<defs>
<linearGradient id="paint0_linear" x1="20.7708" y1="0" x2="20.7708" y2="40.625" gradientUnits="userSpaceOnUse">
<stop offset="0.9999" stop-color="#B1D4E0"/>
<stop offset="1" stop-color="white" stop-opacity="0"/>
</linearGradient>
</defs>
</svg>
