<svg width="36" height="40" viewBox="0 0 36 40" fill="none" xmlns="http://www.w3.org/2000/svg">
<path d="M35.634 18.372C35.1627 16.0687 34.2418 13.881 32.924 11.934C31.6292 10.0186 29.9794 8.36884 28.064 7.074C26.1168 5.75665 23.9291 4.83579 21.626 4.364C20.4162 4.11866 19.1844 3.99803 17.95 4.004V0L10 6L17.95 12V8.004C18.918 8 19.886 8.092 20.82 8.284C22.61 8.65081 24.3104 9.36642 25.824 10.39C27.3167 11.3965 28.6015 12.6813 29.608 14.174C31.1707 16.4845 32.0039 19.2107 32 22C31.9997 23.8718 31.6257 25.7246 30.9 27.45C30.5471 28.2811 30.1158 29.0767 29.612 29.826C29.1062 30.5708 28.5317 31.2665 27.896 31.904C25.96 33.8364 23.5022 35.1619 20.824 35.718C18.9615 36.094 17.0425 36.094 15.18 35.718C13.3891 35.3508 11.6881 34.6345 10.174 33.61C8.68297 32.6044 7.39959 31.321 6.394 29.83C4.83311 27.5171 3.99941 24.7903 4 22H0C0.00212834 25.5874 1.07377 29.0927 3.078 32.068C4.3737 33.9803 6.02172 35.6283 7.934 36.924C10.9052 38.935 14.4122 40.0066 18 40C19.2185 39.9999 20.434 39.8773 21.628 39.634C23.9295 39.1588 26.1158 38.2382 28.064 36.924C29.0206 36.2795 29.9121 35.5433 30.726 34.726C31.541 33.9087 32.2776 33.0168 32.926 32.062C34.9353 29.0916 36.0062 25.5862 36 22C35.9999 20.7815 35.8773 19.566 35.634 18.372V18.372Z" fill="url(#paint0_linear)"/>
<defs>
<linearGradient id="paint0_linear" x1="18" y1="0" x2="18" y2="40" gradientUnits="userSpaceOnUse">
<stop offset="0.9999" stop-color="#B1D4E0"/>
<stop offset="1" stop-color="white" stop-opacity="0"/>
</linearGradient>
</defs>
</svg>
