<svg width="200" height="200" viewBox="0 0 200 200" fill="none" xmlns="http://www.w3.org/2000/svg">
<path d="M88.5888 37.3455H111.397C112.451 37.3455 113.427 36.8259 114.041 35.96C114.639 35.1098 114.781 33.992 114.419 33.0001L103.007 2.10974C102.535 0.834449 101.339 0 99.9849 0C98.6312 0 97.435 0.850193 96.9628 2.10974L85.5509 33.0158C85.1889 34.0077 85.3306 35.1098 85.9287 35.9758C86.5426 36.8417 87.5342 37.3455 88.5888 37.3455Z" fill="url(#paint0_linear)"/>
<path d="M88.5888 37.3455H111.397C112.451 37.3455 113.427 36.8259 114.041 35.96C114.639 35.1098 114.781 33.992 114.419 33.0001L103.007 2.10974C102.535 0.834449 101.339 0 99.9849 0C98.6312 0 97.435 0.850193 96.9628 2.10974L85.5509 33.0158C85.1889 34.0077 85.3306 35.1098 85.9287 35.9758C86.5426 36.8417 87.5342 37.3455 88.5888 37.3455Z" fill="url(#paint1_linear)"/>
<path d="M152.338 63.7644C152.936 64.3785 153.77 64.7091 154.605 64.7091C154.793 64.7091 154.982 64.6934 155.171 64.6619C156.21 64.4729 157.076 63.7959 157.532 62.8355L171.321 32.9056C171.888 31.6775 171.62 30.2448 170.676 29.2844C169.715 28.324 168.267 28.0721 167.04 28.6231L137.133 42.4309C136.172 42.8717 135.496 43.7534 135.307 44.7925C135.118 45.8317 135.464 46.8865 136.188 47.6423L152.338 63.7644Z" fill="url(#paint2_linear)"/>
<path d="M152.338 63.7644C152.936 64.3785 153.77 64.7091 154.605 64.7091C154.793 64.7091 154.982 64.6934 155.171 64.6619C156.21 64.4729 157.076 63.7959 157.532 62.8355L171.321 32.9056C171.888 31.6775 171.62 30.2448 170.676 29.2844C169.715 28.324 168.267 28.0721 167.04 28.6231L137.133 42.4309C136.172 42.8717 135.496 43.7534 135.307 44.7925C135.118 45.8317 135.464 46.8865 136.188 47.6423L152.338 63.7644Z" fill="url(#paint3_linear)"/>
<path d="M197.859 96.9693L166.945 85.5704C165.953 85.2083 164.852 85.35 163.986 85.9482C163.12 86.5465 162.616 87.5227 162.616 88.5775L162.632 111.391C162.632 112.446 163.152 113.438 164.017 114.036C164.568 114.398 165.214 114.603 165.859 114.603C166.237 114.603 166.615 114.54 166.977 114.398L197.891 102.999C199.15 102.543 200 101.33 200 99.9607C199.969 98.6382 199.134 97.4416 197.859 96.9693Z" fill="url(#paint4_linear)"/>
<path d="M197.859 96.9693L166.945 85.5704C165.953 85.2083 164.852 85.35 163.986 85.9482C163.12 86.5465 162.616 87.5227 162.616 88.5775L162.632 111.391C162.632 112.446 163.152 113.438 164.017 114.036C164.568 114.398 165.214 114.603 165.859 114.603C166.237 114.603 166.615 114.54 166.977 114.398L197.891 102.999C199.15 102.543 200 101.33 200 99.9607C199.969 98.6382 199.134 97.4416 197.859 96.9693Z" fill="url(#paint5_linear)"/>
<path d="M157.532 137.149C157.315 136.677 156.987 136.264 156.575 135.946C156.164 135.628 155.683 135.414 155.171 135.322C154.132 135.149 153.062 135.48 152.338 136.22L136.204 152.358C135.464 153.098 135.118 154.168 135.307 155.207C135.496 156.231 136.172 157.128 137.133 157.569L167.055 171.361C167.48 171.566 167.937 171.644 168.409 171.644C169.243 171.644 170.062 171.314 170.675 170.7C171.636 169.739 171.888 168.307 171.321 167.079L157.532 137.149Z" fill="url(#paint6_linear)"/>
<path d="M157.532 137.149C157.315 136.677 156.987 136.264 156.575 135.946C156.164 135.628 155.683 135.414 155.171 135.322C154.132 135.149 153.062 135.48 152.338 136.22L136.204 152.358C135.464 153.098 135.118 154.168 135.307 155.207C135.496 156.231 136.172 157.128 137.133 157.569L167.055 171.361C167.48 171.566 167.937 171.644 168.409 171.644C169.243 171.644 170.062 171.314 170.675 170.7C171.636 169.739 171.888 168.307 171.321 167.079L157.532 137.149Z" fill="url(#paint7_linear)"/>
<path d="M111.381 162.623L88.5731 162.639C87.5185 162.639 86.5426 163.158 85.9445 164.024C85.3464 164.89 85.2047 165.992 85.551 166.968L96.9628 197.89C97.435 199.15 98.6313 200 99.985 200C101.339 200 102.535 199.15 103.007 197.89L114.419 166.968C114.781 165.977 114.639 164.874 114.041 164.009C113.427 163.143 112.451 162.623 111.381 162.623Z" fill="url(#paint8_linear)"/>
<path d="M111.381 162.623L88.5731 162.639C87.5185 162.639 86.5426 163.158 85.9445 164.024C85.3464 164.89 85.2047 165.992 85.551 166.968L96.9628 197.89C97.435 199.15 98.6313 200 99.985 200C101.339 200 102.535 199.15 103.007 197.89L114.419 166.968C114.781 165.977 114.639 164.874 114.041 164.009C113.427 163.143 112.451 162.623 111.381 162.623Z" fill="url(#paint9_linear)"/>
<path d="M47.6322 136.22C46.8924 135.48 45.8378 135.149 44.7989 135.322C43.7601 135.511 42.8786 136.188 42.4379 137.149L28.6492 167.079C28.0826 168.307 28.3501 169.755 29.3103 170.7C29.7748 171.166 30.3712 171.478 31.0188 171.593C31.6664 171.708 32.3338 171.622 32.9306 171.345L62.8532 157.538C63.3252 157.32 63.7377 156.992 64.0556 156.581C64.3735 156.169 64.5874 155.688 64.6791 155.176C64.868 154.137 64.5217 153.082 63.7819 152.342L47.6322 136.22Z" fill="url(#paint10_linear)"/>
<path d="M47.6322 136.22C46.8924 135.48 45.8378 135.149 44.7989 135.322C43.7601 135.511 42.8786 136.188 42.4379 137.149L28.6492 167.079C28.0826 168.307 28.3501 169.755 29.3103 170.7C29.7748 171.166 30.3712 171.478 31.0188 171.593C31.6664 171.708 32.3338 171.622 32.9306 171.345L62.8532 157.538C63.3252 157.32 63.7377 156.992 64.0556 156.581C64.3735 156.169 64.5874 155.688 64.6791 155.176C64.868 154.137 64.5217 153.082 63.7819 152.342L47.6322 136.22Z" fill="url(#paint11_linear)"/>
<path d="M34.1426 114.619C34.788 114.619 35.4334 114.414 35.9843 114.036C36.85 113.438 37.3694 112.446 37.3694 111.391L37.3537 88.5775C37.3538 88.059 37.2287 87.5482 36.9891 87.0885C36.7495 86.6288 36.4025 86.2337 35.9775 85.9369C35.5525 85.6402 35.0621 85.4504 34.5481 85.3838C34.0341 85.3173 33.5116 85.3758 33.0251 85.5546L2.11079 96.9692C1.49181 97.1962 0.957442 97.6079 0.579939 98.1485C0.202436 98.6891 0 99.3327 0 99.9921C0 100.652 0.202436 101.295 0.579939 101.836C0.957442 102.376 1.49181 102.788 2.11079 103.015L33.0408 114.414C33.4028 114.556 33.7649 114.619 34.1426 114.619Z" fill="url(#paint12_linear)"/>
<path d="M34.1426 114.619C34.788 114.619 35.4334 114.414 35.9843 114.036C36.85 113.438 37.3694 112.446 37.3694 111.391L37.3537 88.5775C37.3538 88.059 37.2287 87.5482 36.9891 87.0885C36.7495 86.6288 36.4025 86.2337 35.9775 85.9369C35.5525 85.6402 35.0621 85.4504 34.5481 85.3838C34.0341 85.3173 33.5116 85.3758 33.0251 85.5546L2.11079 96.9692C1.49181 97.1962 0.957442 97.6079 0.579939 98.1485C0.202436 98.6891 0 99.3327 0 99.9921C0 100.652 0.202436 101.295 0.579939 101.836C0.957442 102.376 1.49181 102.788 2.11079 103.015L33.0408 114.414C33.4028 114.556 33.7649 114.619 34.1426 114.619Z" fill="url(#paint13_linear)"/>
<path d="M42.4536 62.8356C42.6715 63.3073 43.0002 63.7195 43.4116 64.0369C43.823 64.3544 44.3049 64.5678 44.8164 64.659C45.328 64.7502 45.8539 64.7165 46.3496 64.5608C46.8454 64.405 47.2961 64.1319 47.6637 63.7645L63.7819 47.6266C64.5217 46.8708 64.8523 45.816 64.6634 44.7768C64.4745 43.7535 63.7976 42.8718 62.8375 42.4309L32.8991 28.6389C31.6713 28.0721 30.239 28.3398 29.2788 29.3002C28.3186 30.2606 28.0668 31.6933 28.6334 32.9214L42.4536 62.8356Z" fill="url(#paint14_linear)"/>
<path d="M42.4536 62.8356C42.6715 63.3073 43.0002 63.7195 43.4116 64.0369C43.823 64.3544 44.3049 64.5678 44.8164 64.659C45.328 64.7502 45.8539 64.7165 46.3496 64.5608C46.8454 64.405 47.2961 64.1319 47.6637 63.7645L63.7819 47.6266C64.5217 46.8708 64.8523 45.816 64.6634 44.7768C64.4745 43.7535 63.7976 42.8718 62.8375 42.4309L32.8991 28.6389C31.6713 28.0721 30.239 28.3398 29.2788 29.3002C28.3186 30.2606 28.0668 31.6933 28.6334 32.9214L42.4536 62.8356Z" fill="url(#paint15_linear)"/>
<path d="M48.5024 99.9764C48.5024 71.5519 71.5518 48.4968 99.9848 48.4968C128.418 48.4968 151.467 71.5519 151.467 99.9764C151.467 128.417 128.418 151.472 99.9848 151.472C71.5521 151.472 48.5024 128.417 48.5024 99.9764Z" stroke="#FCC21B" stroke-width="3"/>
<path d="M48.5024 99.9764C48.5024 71.5519 71.5518 48.4968 99.9848 48.4968C128.418 48.4968 151.467 71.5519 151.467 99.9764C151.467 128.417 128.418 151.472 99.9848 151.472C71.5521 151.472 48.5024 128.417 48.5024 99.9764Z" stroke="url(#paint16_linear)" stroke-width="3"/>
<path d="M88.5888 37.3455H111.397C112.451 37.3455 113.427 36.8259 114.041 35.96C114.639 35.1098 114.781 33.992 114.419 33.0001L103.007 2.10974C102.535 0.834449 101.339 0 99.9849 0C98.6312 0 97.435 0.850193 96.9628 2.10974L85.5509 33.0158C85.1889 34.0077 85.3306 35.1098 85.9287 35.9758C86.5426 36.8417 87.5342 37.3455 88.5888 37.3455Z" fill="url(#paint17_linear)"/>
<path d="M88.5888 37.3455H111.397C112.451 37.3455 113.427 36.8259 114.041 35.96C114.639 35.1098 114.781 33.992 114.419 33.0001L103.007 2.10974C102.535 0.834449 101.339 0 99.9849 0C98.6312 0 97.435 0.850193 96.9628 2.10974L85.5509 33.0158C85.1889 34.0077 85.3306 35.1098 85.9287 35.9758C86.5426 36.8417 87.5342 37.3455 88.5888 37.3455Z" fill="url(#paint18_linear)"/>
<path d="M152.338 63.7644C152.936 64.3785 153.77 64.7091 154.605 64.7091C154.793 64.7091 154.982 64.6934 155.171 64.6619C156.21 64.4729 157.076 63.7959 157.532 62.8355L171.321 32.9056C171.888 31.6775 171.62 30.2448 170.676 29.2844C169.715 28.324 168.267 28.0721 167.04 28.6231L137.133 42.4309C136.172 42.8717 135.496 43.7534 135.307 44.7925C135.118 45.8317 135.464 46.8865 136.188 47.6423L152.338 63.7644Z" fill="url(#paint19_linear)"/>
<path d="M152.338 63.7644C152.936 64.3785 153.77 64.7091 154.605 64.7091C154.793 64.7091 154.982 64.6934 155.171 64.6619C156.21 64.4729 157.076 63.7959 157.532 62.8355L171.321 32.9056C171.888 31.6775 171.62 30.2448 170.676 29.2844C169.715 28.324 168.267 28.0721 167.04 28.6231L137.133 42.4309C136.172 42.8717 135.496 43.7534 135.307 44.7925C135.118 45.8317 135.464 46.8865 136.188 47.6423L152.338 63.7644Z" fill="url(#paint20_linear)"/>
<path d="M197.859 96.9693L166.945 85.5704C165.953 85.2083 164.852 85.35 163.986 85.9482C163.12 86.5465 162.616 87.5227 162.616 88.5775L162.632 111.391C162.632 112.446 163.152 113.438 164.017 114.036C164.568 114.398 165.214 114.603 165.859 114.603C166.237 114.603 166.615 114.54 166.977 114.398L197.891 102.999C199.15 102.543 200 101.33 200 99.9607C199.969 98.6382 199.134 97.4416 197.859 96.9693Z" fill="url(#paint21_linear)"/>
<path d="M197.859 96.9693L166.945 85.5704C165.953 85.2083 164.852 85.35 163.986 85.9482C163.12 86.5465 162.616 87.5227 162.616 88.5775L162.632 111.391C162.632 112.446 163.152 113.438 164.017 114.036C164.568 114.398 165.214 114.603 165.859 114.603C166.237 114.603 166.615 114.54 166.977 114.398L197.891 102.999C199.15 102.543 200 101.33 200 99.9607C199.969 98.6382 199.134 97.4416 197.859 96.9693Z" fill="url(#paint22_linear)"/>
<path d="M157.532 137.149C157.315 136.677 156.987 136.264 156.575 135.946C156.164 135.628 155.683 135.414 155.171 135.322C154.132 135.149 153.062 135.48 152.338 136.22L136.204 152.358C135.464 153.098 135.118 154.168 135.307 155.207C135.496 156.231 136.172 157.128 137.133 157.569L167.055 171.361C167.48 171.566 167.937 171.644 168.409 171.644C169.243 171.644 170.062 171.314 170.675 170.7C171.636 169.739 171.888 168.307 171.321 167.079L157.532 137.149Z" fill="url(#paint23_linear)"/>
<path d="M157.532 137.149C157.315 136.677 156.987 136.264 156.575 135.946C156.164 135.628 155.683 135.414 155.171 135.322C154.132 135.149 153.062 135.48 152.338 136.22L136.204 152.358C135.464 153.098 135.118 154.168 135.307 155.207C135.496 156.231 136.172 157.128 137.133 157.569L167.055 171.361C167.48 171.566 167.937 171.644 168.409 171.644C169.243 171.644 170.062 171.314 170.675 170.7C171.636 169.739 171.888 168.307 171.321 167.079L157.532 137.149Z" fill="url(#paint24_linear)"/>
<path d="M111.381 162.623L88.5731 162.639C87.5185 162.639 86.5426 163.158 85.9445 164.024C85.3464 164.89 85.2047 165.992 85.551 166.968L96.9628 197.89C97.435 199.15 98.6313 200 99.985 200C101.339 200 102.535 199.15 103.007 197.89L114.419 166.968C114.781 165.977 114.639 164.874 114.041 164.009C113.427 163.143 112.451 162.623 111.381 162.623Z" fill="url(#paint25_linear)"/>
<path d="M111.381 162.623L88.5731 162.639C87.5185 162.639 86.5426 163.158 85.9445 164.024C85.3464 164.89 85.2047 165.992 85.551 166.968L96.9628 197.89C97.435 199.15 98.6313 200 99.985 200C101.339 200 102.535 199.15 103.007 197.89L114.419 166.968C114.781 165.977 114.639 164.874 114.041 164.009C113.427 163.143 112.451 162.623 111.381 162.623Z" fill="url(#paint26_linear)"/>
<path d="M47.6322 136.22C46.8924 135.48 45.8378 135.149 44.7989 135.322C43.7601 135.511 42.8786 136.188 42.4379 137.149L28.6492 167.079C28.0826 168.307 28.3501 169.755 29.3103 170.7C29.7748 171.166 30.3712 171.478 31.0188 171.593C31.6664 171.708 32.3338 171.622 32.9306 171.345L62.8532 157.538C63.3252 157.32 63.7377 156.992 64.0556 156.581C64.3735 156.169 64.5874 155.688 64.6791 155.176C64.868 154.137 64.5217 153.082 63.7819 152.342L47.6322 136.22Z" fill="url(#paint27_linear)"/>
<path d="M47.6322 136.22C46.8924 135.48 45.8378 135.149 44.7989 135.322C43.7601 135.511 42.8786 136.188 42.4379 137.149L28.6492 167.079C28.0826 168.307 28.3501 169.755 29.3103 170.7C29.7748 171.166 30.3712 171.478 31.0188 171.593C31.6664 171.708 32.3338 171.622 32.9306 171.345L62.8532 157.538C63.3252 157.32 63.7377 156.992 64.0556 156.581C64.3735 156.169 64.5874 155.688 64.6791 155.176C64.868 154.137 64.5217 153.082 63.7819 152.342L47.6322 136.22Z" fill="url(#paint28_linear)"/>
<path d="M34.1426 114.619C34.788 114.619 35.4334 114.414 35.9843 114.036C36.85 113.438 37.3694 112.446 37.3694 111.391L37.3537 88.5775C37.3538 88.059 37.2287 87.5482 36.9891 87.0885C36.7495 86.6288 36.4025 86.2337 35.9775 85.9369C35.5525 85.6402 35.0621 85.4504 34.5481 85.3838C34.0341 85.3173 33.5116 85.3758 33.0251 85.5546L2.11079 96.9692C1.49181 97.1962 0.957442 97.6079 0.579939 98.1485C0.202436 98.6891 0 99.3327 0 99.9921C0 100.652 0.202436 101.295 0.579939 101.836C0.957442 102.376 1.49181 102.788 2.11079 103.015L33.0408 114.414C33.4028 114.556 33.7649 114.619 34.1426 114.619Z" fill="url(#paint29_linear)"/>
<path d="M34.1426 114.619C34.788 114.619 35.4334 114.414 35.9843 114.036C36.85 113.438 37.3694 112.446 37.3694 111.391L37.3537 88.5775C37.3538 88.059 37.2287 87.5482 36.9891 87.0885C36.7495 86.6288 36.4025 86.2337 35.9775 85.9369C35.5525 85.6402 35.0621 85.4504 34.5481 85.3838C34.0341 85.3173 33.5116 85.3758 33.0251 85.5546L2.11079 96.9692C1.49181 97.1962 0.957442 97.6079 0.579939 98.1485C0.202436 98.6891 0 99.3327 0 99.9921C0 100.652 0.202436 101.295 0.579939 101.836C0.957442 102.376 1.49181 102.788 2.11079 103.015L33.0408 114.414C33.4028 114.556 33.7649 114.619 34.1426 114.619Z" fill="url(#paint30_linear)"/>
<path d="M42.4536 62.8356C42.6715 63.3073 43.0002 63.7195 43.4116 64.0369C43.823 64.3544 44.3049 64.5678 44.8164 64.659C45.328 64.7502 45.8539 64.7165 46.3496 64.5608C46.8454 64.405 47.2961 64.1319 47.6637 63.7645L63.7819 47.6266C64.5217 46.8708 64.8523 45.816 64.6634 44.7768C64.4745 43.7535 63.7976 42.8718 62.8375 42.4309L32.8991 28.6389C31.6713 28.0721 30.239 28.3398 29.2788 29.3002C28.3186 30.2606 28.0668 31.6933 28.6334 32.9214L42.4536 62.8356Z" fill="url(#paint31_linear)"/>
<path d="M42.4536 62.8356C42.6715 63.3073 43.0002 63.7195 43.4116 64.0369C43.823 64.3544 44.3049 64.5678 44.8164 64.659C45.328 64.7502 45.8539 64.7165 46.3496 64.5608C46.8454 64.405 47.2961 64.1319 47.6637 63.7645L63.7819 47.6266C64.5217 46.8708 64.8523 45.816 64.6634 44.7768C64.4745 43.7535 63.7976 42.8718 62.8375 42.4309L32.8991 28.6389C31.6713 28.0721 30.239 28.3398 29.2788 29.3002C28.3186 30.2606 28.0668 31.6933 28.6334 32.9214L42.4536 62.8356Z" fill="url(#paint32_linear)"/>
<defs>
<linearGradient id="paint0_linear" x1="99.9849" y1="0" x2="99.9849" y2="37.3455" gradientUnits="userSpaceOnUse">
<stop offset="0.9999" stop-color="#FF0000"/>
<stop offset="1" stop-color="white" stop-opacity="0"/>
</linearGradient>
<linearGradient id="paint1_linear" x1="99.9849" y1="0" x2="99.9849" y2="37.3455" gradientUnits="userSpaceOnUse">
<stop offset="0.9999" stop-color="#FCC21B"/>
<stop offset="1" stop-color="white" stop-opacity="0"/>
</linearGradient>
<linearGradient id="paint2_linear" x1="153.436" y1="28.3356" x2="153.436" y2="64.7091" gradientUnits="userSpaceOnUse">
<stop offset="0.9999" stop-color="#FF0000"/>
<stop offset="1" stop-color="white" stop-opacity="0"/>
</linearGradient>
<linearGradient id="paint3_linear" x1="153.436" y1="28.3356" x2="153.436" y2="64.7091" gradientUnits="userSpaceOnUse">
<stop offset="0.9999" stop-color="#FCC21B"/>
<stop offset="1" stop-color="white" stop-opacity="0"/>
</linearGradient>
<linearGradient id="paint4_linear" x1="181.308" y1="85.3729" x2="181.308" y2="114.603" gradientUnits="userSpaceOnUse">
<stop offset="0.9999" stop-color="#FF0000"/>
<stop offset="1" stop-color="white" stop-opacity="0"/>
</linearGradient>
<linearGradient id="paint5_linear" x1="181.308" y1="85.3729" x2="181.308" y2="114.603" gradientUnits="userSpaceOnUse">
<stop offset="0.9999" stop-color="#FCC21B"/>
<stop offset="1" stop-color="white" stop-opacity="0"/>
</linearGradient>
<linearGradient id="paint6_linear" x1="153.438" y1="135.277" x2="153.438" y2="171.644" gradientUnits="userSpaceOnUse">
<stop offset="0.9999" stop-color="#FF0000"/>
<stop offset="1" stop-color="white" stop-opacity="0"/>
</linearGradient>
<linearGradient id="paint7_linear" x1="153.438" y1="135.277" x2="153.438" y2="171.644" gradientUnits="userSpaceOnUse">
<stop offset="0.9999" stop-color="#FCC21B"/>
<stop offset="1" stop-color="white" stop-opacity="0"/>
</linearGradient>
<linearGradient id="paint8_linear" x1="99.9908" y1="162.623" x2="99.9908" y2="200" gradientUnits="userSpaceOnUse">
<stop offset="0.9999" stop-color="#FF0000"/>
<stop offset="1" stop-color="white" stop-opacity="0"/>
</linearGradient>
<linearGradient id="paint9_linear" x1="99.9908" y1="162.623" x2="99.9908" y2="200" gradientUnits="userSpaceOnUse">
<stop offset="0.9999" stop-color="#FCC21B"/>
<stop offset="1" stop-color="white" stop-opacity="0"/>
</linearGradient>
<linearGradient id="paint10_linear" x1="46.5423" y1="135.277" x2="46.5423" y2="171.643" gradientUnits="userSpaceOnUse">
<stop offset="0.9999" stop-color="#FF0000"/>
<stop offset="1" stop-color="white" stop-opacity="0"/>
</linearGradient>
<linearGradient id="paint11_linear" x1="46.5423" y1="135.277" x2="46.5423" y2="171.643" gradientUnits="userSpaceOnUse">
<stop offset="0.9999" stop-color="#FCC21B"/>
<stop offset="1" stop-color="white" stop-opacity="0"/>
</linearGradient>
<linearGradient id="paint12_linear" x1="18.6847" y1="85.3572" x2="18.6847" y2="114.619" gradientUnits="userSpaceOnUse">
<stop offset="0.9999" stop-color="#FF0000"/>
<stop offset="1" stop-color="white" stop-opacity="0"/>
</linearGradient>
<linearGradient id="paint13_linear" x1="18.6847" y1="85.3572" x2="18.6847" y2="114.619" gradientUnits="userSpaceOnUse">
<stop offset="0.9999" stop-color="#FCC21B"/>
<stop offset="1" stop-color="white" stop-opacity="0"/>
</linearGradient>
<linearGradient id="paint14_linear" x1="46.525" y1="28.3444" x2="46.525" y2="64.7091" gradientUnits="userSpaceOnUse">
<stop offset="0.9999" stop-color="#FF0000"/>
<stop offset="1" stop-color="white" stop-opacity="0"/>
</linearGradient>
<linearGradient id="paint15_linear" x1="46.525" y1="28.3444" x2="46.525" y2="64.7091" gradientUnits="userSpaceOnUse">
<stop offset="0.9999" stop-color="#FCC21B"/>
<stop offset="1" stop-color="white" stop-opacity="0"/>
</linearGradient>
<linearGradient id="paint16_linear" x1="99.9849" y1="46.9968" x2="99.9849" y2="152.972" gradientUnits="userSpaceOnUse">
<stop offset="0.9999" stop-color="#FF0000"/>
<stop offset="1" stop-color="white" stop-opacity="0"/>
</linearGradient>
<linearGradient id="paint17_linear" x1="99.9849" y1="0" x2="99.9849" y2="37.3455" gradientUnits="userSpaceOnUse">
<stop offset="0.9999" stop-color="#FCC21B"/>
<stop offset="1" stop-color="white" stop-opacity="0"/>
</linearGradient>
<linearGradient id="paint18_linear" x1="99.9849" y1="0" x2="99.9849" y2="37.3455" gradientUnits="userSpaceOnUse">
<stop offset="0.9999" stop-color="#FF0000"/>
<stop offset="1" stop-color="white" stop-opacity="0"/>
</linearGradient>
<linearGradient id="paint19_linear" x1="153.436" y1="28.3356" x2="153.436" y2="64.7091" gradientUnits="userSpaceOnUse">
<stop offset="0.9999" stop-color="#FCC21B"/>
<stop offset="1" stop-color="white" stop-opacity="0"/>
</linearGradient>
<linearGradient id="paint20_linear" x1="153.436" y1="28.3356" x2="153.436" y2="64.7091" gradientUnits="userSpaceOnUse">
<stop offset="0.9999" stop-color="#FF0000"/>
<stop offset="1" stop-color="white" stop-opacity="0"/>
</linearGradient>
<linearGradient id="paint21_linear" x1="181.308" y1="85.3729" x2="181.308" y2="114.603" gradientUnits="userSpaceOnUse">
<stop offset="0.9999" stop-color="#FCC21B"/>
<stop offset="1" stop-color="white" stop-opacity="0"/>
</linearGradient>
<linearGradient id="paint22_linear" x1="181.308" y1="85.3729" x2="181.308" y2="114.603" gradientUnits="userSpaceOnUse">
<stop offset="0.9999" stop-color="#FF0000"/>
<stop offset="1" stop-color="white" stop-opacity="0"/>
</linearGradient>
<linearGradient id="paint23_linear" x1="153.438" y1="135.277" x2="153.438" y2="171.644" gradientUnits="userSpaceOnUse">
<stop offset="0.9999" stop-color="#FCC21B"/>
<stop offset="1" stop-color="white" stop-opacity="0"/>
</linearGradient>
<linearGradient id="paint24_linear" x1="153.438" y1="135.277" x2="153.438" y2="171.644" gradientUnits="userSpaceOnUse">
<stop offset="0.9999" stop-color="#FF0000"/>
<stop offset="1" stop-color="white" stop-opacity="0"/>
</linearGradient>
<linearGradient id="paint25_linear" x1="99.9908" y1="162.623" x2="99.9908" y2="200" gradientUnits="userSpaceOnUse">
<stop offset="0.9999" stop-color="#FCC21B"/>
<stop offset="1" stop-color="white" stop-opacity="0"/>
</linearGradient>
<linearGradient id="paint26_linear" x1="99.9908" y1="162.623" x2="99.9908" y2="200" gradientUnits="userSpaceOnUse">
<stop offset="0.9999" stop-color="#FF0000"/>
<stop offset="1" stop-color="white" stop-opacity="0"/>
</linearGradient>
<linearGradient id="paint27_linear" x1="46.5423" y1="135.277" x2="46.5423" y2="171.643" gradientUnits="userSpaceOnUse">
<stop offset="0.9999" stop-color="#FCC21B"/>
<stop offset="1" stop-color="white" stop-opacity="0"/>
</linearGradient>
<linearGradient id="paint28_linear" x1="46.5423" y1="135.277" x2="46.5423" y2="171.643" gradientUnits="userSpaceOnUse">
<stop offset="0.9999" stop-color="#FF0000"/>
<stop offset="1" stop-color="white" stop-opacity="0"/>
</linearGradient>
<linearGradient id="paint29_linear" x1="18.6847" y1="85.3572" x2="18.6847" y2="114.619" gradientUnits="userSpaceOnUse">
<stop offset="0.9999" stop-color="#FCC21B"/>
<stop offset="1" stop-color="white" stop-opacity="0"/>
</linearGradient>
<linearGradient id="paint30_linear" x1="18.6847" y1="85.3572" x2="18.6847" y2="114.619" gradientUnits="userSpaceOnUse">
<stop offset="0.9999" stop-color="#FF0000"/>
<stop offset="1" stop-color="white" stop-opacity="0"/>
</linearGradient>
<linearGradient id="paint31_linear" x1="46.525" y1="28.3444" x2="46.525" y2="64.7091" gradientUnits="userSpaceOnUse">
<stop offset="0.9999" stop-color="#FCC21B"/>
<stop offset="1" stop-color="white" stop-opacity="0"/>
</linearGradient>
<linearGradient id="paint32_linear" x1="46.525" y1="28.3444" x2="46.525" y2="64.7091" gradientUnits="userSpaceOnUse">
<stop offset="0.9999" stop-color="#FF0000"/>
<stop offset="1" stop-color="white" stop-opacity="0"/>
</linearGradient>
</defs>
</svg>
