<svg width="39" height="40" viewBox="0 0 39 40" fill="none" xmlns="http://www.w3.org/2000/svg">
<path d="M34.319 21.95C34.394 21.325 34.444 20.675 34.444 20C34.444 19.325 34.394 18.675 34.294 18.05L38.519 14.75C38.894 14.45 38.994 13.9 38.769 13.475L34.769 6.55C34.519 6.1 33.994 5.95 33.544 6.1L28.569 8.1C27.519 7.3 26.419 6.65 25.194 6.15L24.444 0.85C24.369 0.35 23.944 0 23.444 0H15.444C14.944 0 14.544 0.35 14.469 0.85L13.719 6.15C12.494 6.65 11.369 7.325 10.344 8.1L5.36899 6.1C4.91899 5.925 4.39399 6.1 4.14399 6.55L0.143988 13.475C-0.106012 13.925 -0.00601128 14.45 0.393989 14.75L4.61899 18.05C4.51899 18.675 4.44399 19.35 4.44399 20C4.44399 20.65 4.49399 21.325 4.59399 21.95L0.368988 25.25C-0.00601187 25.55 -0.106012 26.1 0.118988 26.525L4.11899 33.45C4.36899 33.9 4.89399 34.05 5.34399 33.9L10.319 31.9C11.369 32.7 12.469 33.35 13.694 33.85L14.444 39.15C14.544 39.65 14.944 40 15.444 40H23.444C23.944 40 24.369 39.65 24.419 39.15L25.169 33.85C26.394 33.35 27.519 32.675 28.544 31.9L33.519 33.9C33.969 34.075 34.494 33.9 34.744 33.45L38.744 26.525C38.994 26.075 38.894 25.55 38.494 25.25L34.319 21.95ZM19.444 27.5C15.319 27.5 11.944 24.125 11.944 20C11.944 15.875 15.319 12.5 19.444 12.5C23.569 12.5 26.944 15.875 26.944 20C26.944 24.125 23.569 27.5 19.444 27.5Z" fill="url(#paint0_linear)"/>
<defs>
<linearGradient id="paint0_linear" x1="19.444" y1="0" x2="19.444" y2="40" gradientUnits="userSpaceOnUse">
<stop offset="0.9999" stop-color="#B1D4E0"/>
<stop offset="1" stop-color="white" stop-opacity="0"/>
</linearGradient>
</defs>
</svg>
