<svg width="42" height="42" viewBox="0 0 42 42" fill="none" xmlns="http://www.w3.org/2000/svg">
<path d="M4.16667 8.33333C3.0616 8.33333 2.00179 8.77232 1.22039 9.55372C0.438987 10.3351 0 11.3949 0 12.5V37.5C0 39.7917 1.875 41.6667 4.16667 41.6667H29.1667C30.2717 41.6667 31.3315 41.2277 32.1129 40.4463C32.8943 39.6649 33.3333 38.6051 33.3333 37.5H4.16667V8.33333ZM37.5 0H12.5C11.3949 0 10.3351 0.438987 9.55372 1.22039C8.77232 2.00179 8.33333 3.0616 8.33333 4.16667V29.1667C8.33333 30.2717 8.77232 31.3315 9.55372 32.1129C10.3351 32.8943 11.3949 33.3333 12.5 33.3333H37.5C38.6051 33.3333 39.6649 32.8943 40.4463 32.1129C41.2277 31.3315 41.6667 30.2717 41.6667 29.1667V4.16667C41.6667 3.0616 41.2277 2.00179 40.4463 1.22039C39.6649 0.438987 38.6051 0 37.5 0ZM27.0833 29.1667H12.5V14.5833H27.0833V29.1667ZM37.5 29.1667H31.25V14.5833H37.5V29.1667ZM37.5 10.4167H12.5V4.16667H37.5V10.4167Z" fill="url(#paint0_linear)"/>
<defs>
<linearGradient id="paint0_linear" x1="20.8333" y1="0" x2="20.8333" y2="41.6667" gradientUnits="userSpaceOnUse">
<stop offset="0.9999" stop-color="#B1D4E0"/>
<stop offset="1" stop-color="white" stop-opacity="0"/>
</linearGradient>
</defs>
</svg>
