<svg width="41" height="42" viewBox="0 0 41 42" fill="none" xmlns="http://www.w3.org/2000/svg">
<path d="M21.5392 9.32618H19.1905C18.9757 9.32618 18.7999 9.50196 18.7999 9.7168V23.1592C18.7999 23.2861 18.8585 23.4033 18.961 23.4766L27.0323 29.3701C27.2081 29.4971 27.4523 29.4629 27.5792 29.2871L28.9757 27.3828C29.1075 27.2022 29.0685 26.958 28.8927 26.8359L21.9298 21.8018V9.7168C21.9298 9.50196 21.754 9.32618 21.5392 9.32618ZM32.2716 12.9981L39.9278 14.8682C40.172 14.9268 40.4112 14.7412 40.4112 14.4922L40.4503 6.60645C40.4503 6.2793 40.0743 6.09376 39.8204 6.29883L32.1251 12.3096C32.0669 12.3546 32.0227 12.4151 31.9974 12.4841C31.9721 12.5531 31.9667 12.6279 31.982 12.6998C31.9973 12.7718 32.0326 12.8379 32.0839 12.8907C32.1351 12.9434 32.2002 12.9806 32.2716 12.9981V12.9981ZM40.4601 27.7002L37.6915 26.7481C37.595 26.715 37.4893 26.721 37.3972 26.7648C37.305 26.8086 37.2337 26.8867 37.1983 26.9824C37.1056 27.2315 37.0079 27.4756 36.9054 27.7197C36.0362 29.7754 34.7911 31.626 33.1993 33.2129C31.6252 34.7919 29.7597 36.0505 27.7062 36.919C25.5789 37.8184 23.2922 38.28 20.9825 38.2764C18.6485 38.2764 16.3878 37.8223 14.2589 36.919C12.2054 36.0505 10.3399 34.7919 8.76573 33.2129C7.17882 31.626 5.9337 29.7754 5.05968 27.7197C4.16523 25.5912 3.70696 23.3049 3.71202 20.9961C3.71202 18.6621 4.16612 16.3965 5.06944 14.2676C5.93858 12.2119 7.1837 10.3613 8.7755 8.77442C10.3496 7.19541 12.2151 5.93681 14.2687 5.06837C16.3878 4.16505 18.6534 3.71094 20.9874 3.71094C23.3214 3.71094 25.5821 4.16505 27.711 5.06837C29.7646 5.93681 31.6301 7.19541 33.2042 8.77442C33.7023 9.27735 34.171 9.79981 34.6007 10.3516L37.5206 8.06641C33.6778 3.1543 27.6964 -0.00487716 20.9776 5.65205e-06C9.27843 0.00488846 -0.116103 9.50684 0.00108453 21.2109C0.118272 32.71 9.46886 41.9922 20.9874 41.9922C30.045 41.9922 37.7599 36.25 40.6993 28.208C40.7726 28.0029 40.6651 27.7734 40.4601 27.7002V27.7002Z" fill="url(#paint0_linear)"/>
<defs>
<linearGradient id="paint0_linear" x1="20.3612" y1="0" x2="20.3612" y2="41.9922" gradientUnits="userSpaceOnUse">
<stop offset="0.9999" stop-color="#B1D4E0"/>
<stop offset="1" stop-color="white" stop-opacity="0"/>
</linearGradient>
</defs>
</svg>
