<svg width="466" height="483" viewBox="0 0 466 483" fill="none" xmlns="http://www.w3.org/2000/svg">
<path d="M232.965 113.497C164.785 113.497 109.516 170.797 109.516 241.443C109.516 312.127 164.785 369.427 232.965 369.427C301.144 369.427 356.414 312.127 356.414 241.443C356.414 170.797 301.144 113.497 232.965 113.497V113.497Z" fill="url(#paint0_linear)"/>
<path d="M232.965 113.497C164.785 113.497 109.516 170.797 109.516 241.443C109.516 312.127 164.785 369.427 232.965 369.427C301.144 369.427 356.414 312.127 356.414 241.443C356.414 170.797 301.144 113.497 232.965 113.497V113.497Z" fill="url(#paint1_linear)"/>
<path d="M206.412 90.1894H259.554C262.012 90.1894 264.286 88.9347 265.716 86.8434C267.11 84.7902 267.44 82.0906 266.596 79.6952L240.007 5.09502C238.906 2.01519 236.119 0 232.965 0C229.811 0 227.023 2.05322 225.923 5.09502L199.334 79.7332C198.49 82.1286 198.82 84.7902 200.214 86.8814C201.644 88.9727 203.955 90.1894 206.412 90.1894Z" fill="url(#paint2_linear)"/>
<path d="M206.412 90.1894H259.554C262.012 90.1894 264.286 88.9347 265.716 86.8434C267.11 84.7902 267.44 82.0906 266.596 79.6952L240.007 5.09502C238.906 2.01519 236.119 0 232.965 0C229.811 0 227.023 2.05322 225.923 5.09502L199.334 79.7332C198.49 82.1286 198.82 84.7902 200.214 86.8814C201.644 88.9727 203.955 90.1894 206.412 90.1894Z" fill="url(#paint3_linear)"/>
<path d="M354.947 153.991C356.341 155.474 358.285 156.273 360.229 156.273C360.669 156.273 361.109 156.235 361.549 156.159C363.97 155.702 365.987 154.067 367.05 151.748L399.178 79.4673C400.498 76.5015 399.875 73.0415 397.674 70.7221C395.437 68.4027 392.063 67.7943 389.202 69.1251L319.519 102.471C317.282 103.536 315.705 105.665 315.265 108.174C314.825 110.684 315.631 113.231 317.319 115.056L354.947 153.991V153.991Z" fill="url(#paint4_linear)"/>
<path d="M354.947 153.991C356.341 155.474 358.285 156.273 360.229 156.273C360.669 156.273 361.109 156.235 361.549 156.159C363.97 155.702 365.987 154.067 367.05 151.748L399.178 79.4673C400.498 76.5015 399.875 73.0415 397.674 70.7221C395.437 68.4027 392.063 67.7943 389.202 69.1251L319.519 102.471C317.282 103.536 315.705 105.665 315.265 108.174C314.825 110.684 315.631 113.231 317.319 115.056L354.947 153.991V153.991Z" fill="url(#paint5_linear)"/>
<path d="M461.012 234.18L388.982 206.652C386.671 205.778 384.104 206.12 382.087 207.565C380.07 209.01 378.896 211.367 378.896 213.914L378.933 269.009C378.933 271.557 380.143 273.952 382.16 275.397C383.444 276.271 384.948 276.766 386.451 276.766C387.332 276.766 388.212 276.614 389.055 276.271L461.086 248.743C464.02 247.64 466 244.713 466 241.405C465.927 238.211 463.983 235.321 461.012 234.18V234.18Z" fill="url(#paint6_linear)"/>
<path d="M461.012 234.18L388.982 206.652C386.671 205.778 384.104 206.12 382.087 207.565C380.07 209.01 378.896 211.367 378.896 213.914L378.933 269.009C378.933 271.557 380.143 273.952 382.16 275.397C383.444 276.271 384.948 276.766 386.451 276.766C387.332 276.766 388.212 276.614 389.055 276.271L461.086 248.743C464.02 247.64 466 244.713 466 241.405C465.927 238.211 463.983 235.321 461.012 234.18V234.18Z" fill="url(#paint7_linear)"/>
<path d="M367.05 331.214C366.543 330.074 365.779 329.078 364.821 328.31C363.863 327.542 362.74 327.025 361.549 326.804C359.128 326.386 356.634 327.184 354.947 328.971L317.355 367.944C315.631 369.731 314.824 372.317 315.265 374.826C315.705 377.298 317.282 379.465 319.519 380.53L389.239 413.837C390.229 414.332 391.292 414.522 392.393 414.522C394.336 414.522 396.244 413.723 397.674 412.24C399.911 409.921 400.498 406.461 399.178 403.495L367.05 331.214V331.214Z" fill="url(#paint8_linear)"/>
<path d="M367.05 331.214C366.543 330.074 365.779 329.078 364.821 328.31C363.863 327.542 362.74 327.025 361.549 326.804C359.128 326.386 356.634 327.184 354.947 328.971L317.355 367.944C315.631 369.731 314.824 372.317 315.265 374.826C315.705 377.298 317.282 379.465 319.519 380.53L389.239 413.837C390.229 414.332 391.292 414.522 392.393 414.522C394.336 414.522 396.244 413.723 397.674 412.24C399.911 409.921 400.498 406.461 399.178 403.495L367.05 331.214V331.214Z" fill="url(#paint9_linear)"/>
<path d="M259.518 392.735L206.375 392.773C203.918 392.773 201.644 394.027 200.251 396.119C198.857 398.21 198.527 400.871 199.334 403.229L225.923 477.905C227.024 480.947 229.811 483 232.965 483C236.119 483 238.906 480.947 240.007 477.905L266.596 403.229C267.44 400.833 267.11 398.172 265.716 396.081C264.286 393.989 262.012 392.735 259.518 392.735V392.735Z" fill="url(#paint10_linear)"/>
<path d="M259.518 392.735L206.375 392.773C203.918 392.773 201.644 394.027 200.251 396.119C198.857 398.21 198.527 400.871 199.334 403.229L225.923 477.905C227.024 480.947 229.811 483 232.965 483C236.119 483 238.906 480.947 240.007 477.905L266.596 403.229C267.44 400.833 267.11 398.172 265.716 396.081C264.286 393.989 262.012 392.735 259.518 392.735V392.735Z" fill="url(#paint11_linear)"/>
<path d="M110.983 328.971C109.259 327.184 106.802 326.386 104.382 326.804C101.961 327.26 99.9071 328.895 98.8802 331.214L66.7527 403.495C65.4324 406.461 66.0558 409.959 68.293 412.24C69.3753 413.366 70.765 414.119 72.2738 414.397C73.7827 414.676 75.3378 414.467 76.7283 413.799L146.448 380.454C147.548 379.928 148.509 379.136 149.25 378.143C149.99 377.15 150.489 375.986 150.702 374.75C151.142 372.241 150.336 369.693 148.612 367.906L110.983 328.971Z" fill="url(#paint12_linear)"/>
<path d="M110.983 328.971C109.259 327.184 106.802 326.386 104.382 326.804C101.961 327.26 99.9071 328.895 98.8802 331.214L66.7527 403.495C65.4324 406.461 66.0558 409.959 68.293 412.24C69.3753 413.366 70.765 414.119 72.2738 414.397C73.7827 414.676 75.3378 414.467 76.7283 413.799L146.448 380.454C147.548 379.928 148.509 379.136 149.25 378.143C149.99 377.15 150.489 375.986 150.702 374.75C151.142 372.241 150.336 369.693 148.612 367.906L110.983 328.971Z" fill="url(#paint13_linear)"/>
<path d="M79.5523 276.804C81.056 276.804 82.5597 276.31 83.8433 275.397C85.8605 273.952 87.0708 271.557 87.0708 269.009L87.0341 213.915C87.0343 212.663 86.7429 211.429 86.1846 210.319C85.6263 209.209 84.8177 208.254 83.8275 207.538C82.8373 206.821 81.6948 206.363 80.4971 206.202C79.2994 206.041 78.082 206.183 76.9484 206.614L4.91813 234.181C3.47591 234.729 2.23084 235.723 1.35126 237.029C0.471676 238.334 0 239.888 0 241.481C0 243.073 0.471676 244.628 1.35126 245.933C2.23084 247.239 3.47591 248.233 4.91813 248.781L76.9851 276.31C77.8286 276.652 78.6721 276.804 79.5523 276.804V276.804Z" fill="url(#paint14_linear)"/>
<path d="M79.5523 276.804C81.056 276.804 82.5597 276.31 83.8433 275.397C85.8605 273.952 87.0708 271.557 87.0708 269.009L87.0341 213.915C87.0343 212.663 86.7429 211.429 86.1846 210.319C85.6263 209.209 84.8177 208.254 83.8275 207.538C82.8373 206.821 81.6948 206.363 80.4971 206.202C79.2994 206.041 78.082 206.183 76.9484 206.614L4.91813 234.181C3.47591 234.729 2.23084 235.723 1.35126 237.029C0.471676 238.334 0 239.888 0 241.481C0 243.073 0.471676 244.628 1.35126 245.933C2.23084 247.239 3.47591 248.233 4.91813 248.781L76.9851 276.31C77.8286 276.652 78.6721 276.804 79.5523 276.804V276.804Z" fill="url(#paint15_linear)"/>
<path d="M98.9168 151.748C99.4247 152.887 100.19 153.883 101.149 154.649C102.107 155.416 103.23 155.932 104.422 156.152C105.614 156.372 106.84 156.291 107.995 155.915C109.15 155.538 110.2 154.879 111.056 153.991L148.612 115.018C150.336 113.193 151.106 110.646 150.666 108.136C150.226 105.665 148.649 103.536 146.411 102.471L76.6549 69.1632C73.7942 67.7944 70.4568 68.4408 68.2196 70.7602C65.9824 73.0796 65.3956 76.5396 66.7159 79.5054L98.9168 151.748V151.748Z" fill="url(#paint16_linear)"/>
<path d="M98.9168 151.748C99.4247 152.887 100.19 153.883 101.149 154.649C102.107 155.416 103.23 155.932 104.422 156.152C105.614 156.372 106.84 156.291 107.995 155.915C109.15 155.538 110.2 154.879 111.056 153.991L148.612 115.018C150.336 113.193 151.106 110.646 150.666 108.136C150.226 105.665 148.649 103.536 146.411 102.471L76.6549 69.1632C73.7942 67.7944 70.4568 68.4408 68.2196 70.7602C65.9824 73.0796 65.3956 76.5396 66.7159 79.5054L98.9168 151.748V151.748Z" fill="url(#paint17_linear)"/>
<ellipse cx="232.5" cy="241.5" rx="116.5" ry="120.5" fill="url(#paint18_linear)"/>
<ellipse cx="232.5" cy="241.5" rx="116.5" ry="120.5" fill="url(#paint19_linear)"/>
<path d="M229.563 282.203V290.939C229.558 291.801 229.367 292.551 228.992 293.189C228.617 293.828 228.087 294.32 227.401 294.666C226.722 295.006 225.939 295.176 225.055 295.176C223.707 295.176 222.626 294.81 221.812 294.077C221.003 293.339 220.584 292.319 220.555 291.019V282.203H221.627V290.86C221.627 291.938 221.935 292.776 222.55 293.374C223.165 293.966 224 294.262 225.055 294.262C226.109 294.262 226.941 293.963 227.551 293.365C228.166 292.768 228.474 291.936 228.474 290.869V282.203H229.563ZM236.437 293.418L236.507 293.69L236.586 293.418L240.611 282.203H241.798L237.034 295H235.997L231.233 282.203H232.411L236.437 293.418ZM245.006 295H243.925V282.203H245.006V295Z" fill="url(#paint20_linear)"/>
<path d="M236.461 218H234.117V192.375L226.383 195.246V193.059L236.07 189.465H236.461V218Z" fill="url(#paint21_linear)"/>
<path d="M232.965 113.497C164.785 113.497 109.516 170.797 109.516 241.443C109.516 312.127 164.785 369.427 232.965 369.427C301.144 369.427 356.414 312.127 356.414 241.443C356.414 170.797 301.144 113.497 232.965 113.497V113.497Z" fill="url(#paint22_linear)"/>
<path d="M232.965 113.497C164.785 113.497 109.516 170.797 109.516 241.443C109.516 312.127 164.785 369.427 232.965 369.427C301.144 369.427 356.414 312.127 356.414 241.443C356.414 170.797 301.144 113.497 232.965 113.497V113.497Z" fill="url(#paint23_linear)"/>
<path d="M206.412 90.1894H259.554C262.012 90.1894 264.286 88.9347 265.716 86.8434C267.11 84.7902 267.44 82.0906 266.596 79.6952L240.007 5.09502C238.906 2.01519 236.119 0 232.965 0C229.811 0 227.023 2.05322 225.923 5.09502L199.334 79.7332C198.49 82.1286 198.82 84.7902 200.214 86.8814C201.644 88.9727 203.955 90.1894 206.412 90.1894Z" fill="url(#paint24_linear)"/>
<path d="M206.412 90.1894H259.554C262.012 90.1894 264.286 88.9347 265.716 86.8434C267.11 84.7902 267.44 82.0906 266.596 79.6952L240.007 5.09502C238.906 2.01519 236.119 0 232.965 0C229.811 0 227.023 2.05322 225.923 5.09502L199.334 79.7332C198.49 82.1286 198.82 84.7902 200.214 86.8814C201.644 88.9727 203.955 90.1894 206.412 90.1894Z" fill="url(#paint25_linear)"/>
<path d="M354.947 153.991C356.341 155.474 358.285 156.273 360.229 156.273C360.669 156.273 361.109 156.235 361.549 156.159C363.97 155.702 365.987 154.067 367.05 151.748L399.178 79.4673C400.498 76.5015 399.875 73.0415 397.674 70.7221C395.437 68.4027 392.063 67.7943 389.202 69.1251L319.519 102.471C317.282 103.536 315.705 105.665 315.265 108.174C314.825 110.684 315.631 113.231 317.319 115.056L354.947 153.991V153.991Z" fill="url(#paint26_linear)"/>
<path d="M354.947 153.991C356.341 155.474 358.285 156.273 360.229 156.273C360.669 156.273 361.109 156.235 361.549 156.159C363.97 155.702 365.987 154.067 367.05 151.748L399.178 79.4673C400.498 76.5015 399.875 73.0415 397.674 70.7221C395.437 68.4027 392.063 67.7943 389.202 69.1251L319.519 102.471C317.282 103.536 315.705 105.665 315.265 108.174C314.825 110.684 315.631 113.231 317.319 115.056L354.947 153.991V153.991Z" fill="url(#paint27_linear)"/>
<path d="M461.012 234.18L388.982 206.652C386.671 205.778 384.104 206.12 382.087 207.565C380.07 209.01 378.896 211.367 378.896 213.914L378.933 269.009C378.933 271.557 380.143 273.952 382.16 275.397C383.444 276.271 384.948 276.766 386.451 276.766C387.332 276.766 388.212 276.614 389.055 276.271L461.086 248.743C464.02 247.64 466 244.713 466 241.405C465.927 238.211 463.983 235.321 461.012 234.18V234.18Z" fill="url(#paint28_linear)"/>
<path d="M461.012 234.18L388.982 206.652C386.671 205.778 384.104 206.12 382.087 207.565C380.07 209.01 378.896 211.367 378.896 213.914L378.933 269.009C378.933 271.557 380.143 273.952 382.16 275.397C383.444 276.271 384.948 276.766 386.451 276.766C387.332 276.766 388.212 276.614 389.055 276.271L461.086 248.743C464.02 247.64 466 244.713 466 241.405C465.927 238.211 463.983 235.321 461.012 234.18V234.18Z" fill="url(#paint29_linear)"/>
<path d="M367.05 331.214C366.543 330.074 365.779 329.078 364.821 328.31C363.863 327.542 362.74 327.025 361.549 326.804C359.128 326.386 356.634 327.184 354.947 328.971L317.355 367.944C315.631 369.731 314.824 372.317 315.265 374.826C315.705 377.298 317.282 379.465 319.519 380.53L389.239 413.837C390.229 414.332 391.292 414.522 392.393 414.522C394.336 414.522 396.244 413.723 397.674 412.24C399.911 409.921 400.498 406.461 399.178 403.495L367.05 331.214V331.214Z" fill="url(#paint30_linear)"/>
<path d="M367.05 331.214C366.543 330.074 365.779 329.078 364.821 328.31C363.863 327.542 362.74 327.025 361.549 326.804C359.128 326.386 356.634 327.184 354.947 328.971L317.355 367.944C315.631 369.731 314.824 372.317 315.265 374.826C315.705 377.298 317.282 379.465 319.519 380.53L389.239 413.837C390.229 414.332 391.292 414.522 392.393 414.522C394.336 414.522 396.244 413.723 397.674 412.24C399.911 409.921 400.498 406.461 399.178 403.495L367.05 331.214V331.214Z" fill="url(#paint31_linear)"/>
<path d="M259.518 392.735L206.375 392.773C203.918 392.773 201.644 394.027 200.251 396.119C198.857 398.21 198.527 400.871 199.334 403.229L225.923 477.905C227.024 480.947 229.811 483 232.965 483C236.119 483 238.906 480.947 240.007 477.905L266.596 403.229C267.44 400.833 267.11 398.172 265.716 396.081C264.286 393.989 262.012 392.735 259.518 392.735V392.735Z" fill="url(#paint32_linear)"/>
<path d="M259.518 392.735L206.375 392.773C203.918 392.773 201.644 394.027 200.251 396.119C198.857 398.21 198.527 400.871 199.334 403.229L225.923 477.905C227.024 480.947 229.811 483 232.965 483C236.119 483 238.906 480.947 240.007 477.905L266.596 403.229C267.44 400.833 267.11 398.172 265.716 396.081C264.286 393.989 262.012 392.735 259.518 392.735V392.735Z" fill="url(#paint33_linear)"/>
<path d="M110.983 328.971C109.259 327.184 106.802 326.386 104.382 326.804C101.961 327.26 99.9071 328.895 98.8802 331.214L66.7527 403.495C65.4324 406.461 66.0558 409.959 68.293 412.24C69.3753 413.366 70.765 414.119 72.2738 414.397C73.7827 414.676 75.3378 414.467 76.7283 413.799L146.448 380.454C147.548 379.928 148.509 379.136 149.25 378.143C149.99 377.15 150.489 375.986 150.702 374.75C151.142 372.241 150.336 369.693 148.612 367.906L110.983 328.971Z" fill="url(#paint34_linear)"/>
<path d="M110.983 328.971C109.259 327.184 106.802 326.386 104.382 326.804C101.961 327.26 99.9071 328.895 98.8802 331.214L66.7527 403.495C65.4324 406.461 66.0558 409.959 68.293 412.24C69.3753 413.366 70.765 414.119 72.2738 414.397C73.7827 414.676 75.3378 414.467 76.7283 413.799L146.448 380.454C147.548 379.928 148.509 379.136 149.25 378.143C149.99 377.15 150.489 375.986 150.702 374.75C151.142 372.241 150.336 369.693 148.612 367.906L110.983 328.971Z" fill="url(#paint35_linear)"/>
<path d="M79.5523 276.804C81.056 276.804 82.5597 276.31 83.8433 275.397C85.8605 273.952 87.0708 271.557 87.0708 269.009L87.0341 213.915C87.0343 212.663 86.7429 211.429 86.1846 210.319C85.6263 209.209 84.8177 208.254 83.8275 207.538C82.8373 206.821 81.6948 206.363 80.4971 206.202C79.2994 206.041 78.082 206.183 76.9484 206.614L4.91813 234.181C3.47591 234.729 2.23084 235.723 1.35126 237.029C0.471676 238.334 0 239.888 0 241.481C0 243.073 0.471676 244.628 1.35126 245.933C2.23084 247.239 3.47591 248.233 4.91813 248.781L76.9851 276.31C77.8286 276.652 78.6721 276.804 79.5523 276.804V276.804Z" fill="url(#paint36_linear)"/>
<path d="M79.5523 276.804C81.056 276.804 82.5597 276.31 83.8433 275.397C85.8605 273.952 87.0708 271.557 87.0708 269.009L87.0341 213.915C87.0343 212.663 86.7429 211.429 86.1846 210.319C85.6263 209.209 84.8177 208.254 83.8275 207.538C82.8373 206.821 81.6948 206.363 80.4971 206.202C79.2994 206.041 78.082 206.183 76.9484 206.614L4.91813 234.181C3.47591 234.729 2.23084 235.723 1.35126 237.029C0.471676 238.334 0 239.888 0 241.481C0 243.073 0.471676 244.628 1.35126 245.933C2.23084 247.239 3.47591 248.233 4.91813 248.781L76.9851 276.31C77.8286 276.652 78.6721 276.804 79.5523 276.804V276.804Z" fill="url(#paint37_linear)"/>
<path d="M98.9168 151.748C99.4247 152.887 100.19 153.883 101.149 154.649C102.107 155.416 103.23 155.932 104.422 156.152C105.614 156.372 106.84 156.291 107.995 155.915C109.15 155.538 110.2 154.879 111.056 153.991L148.612 115.018C150.336 113.193 151.106 110.646 150.666 108.136C150.226 105.665 148.649 103.536 146.411 102.471L76.6549 69.1632C73.7942 67.7944 70.4568 68.4408 68.2196 70.7602C65.9824 73.0796 65.3956 76.5396 66.7159 79.5054L98.9168 151.748V151.748Z" fill="url(#paint38_linear)"/>
<path d="M98.9168 151.748C99.4247 152.887 100.19 153.883 101.149 154.649C102.107 155.416 103.23 155.932 104.422 156.152C105.614 156.372 106.84 156.291 107.995 155.915C109.15 155.538 110.2 154.879 111.056 153.991L148.612 115.018C150.336 113.193 151.106 110.646 150.666 108.136C150.226 105.665 148.649 103.536 146.411 102.471L76.6549 69.1632C73.7942 67.7944 70.4568 68.4408 68.2196 70.7602C65.9824 73.0796 65.3956 76.5396 66.7159 79.5054L98.9168 151.748V151.748Z" fill="url(#paint39_linear)"/>
<defs>
<linearGradient id="paint0_linear" x1="232.965" y1="113.497" x2="232.965" y2="369.427" gradientUnits="userSpaceOnUse">
<stop stop-color="#FF0000"/>
<stop offset="1" stop-color="white" stop-opacity="0"/>
</linearGradient>
<linearGradient id="paint1_linear" x1="232.965" y1="113.497" x2="232.965" y2="369.427" gradientUnits="userSpaceOnUse">
<stop offset="0.9999" stop-color="#C2FBFF"/>
<stop offset="1" stop-color="white" stop-opacity="0"/>
</linearGradient>
<linearGradient id="paint2_linear" x1="232.965" y1="0" x2="232.965" y2="90.1894" gradientUnits="userSpaceOnUse">
<stop stop-color="#FF0000"/>
<stop offset="1" stop-color="white" stop-opacity="0"/>
</linearGradient>
<linearGradient id="paint3_linear" x1="232.965" y1="0" x2="232.965" y2="90.1894" gradientUnits="userSpaceOnUse">
<stop offset="0.9999" stop-color="#C2FBFF"/>
<stop offset="1" stop-color="white" stop-opacity="0"/>
</linearGradient>
<linearGradient id="paint4_linear" x1="357.506" y1="68.4307" x2="357.506" y2="156.273" gradientUnits="userSpaceOnUse">
<stop stop-color="#FF0000"/>
<stop offset="1" stop-color="white" stop-opacity="0"/>
</linearGradient>
<linearGradient id="paint5_linear" x1="357.506" y1="68.4307" x2="357.506" y2="156.273" gradientUnits="userSpaceOnUse">
<stop offset="0.9999" stop-color="#C2FBFF"/>
<stop offset="1" stop-color="white" stop-opacity="0"/>
</linearGradient>
<linearGradient id="paint6_linear" x1="422.448" y1="206.175" x2="422.448" y2="276.766" gradientUnits="userSpaceOnUse">
<stop stop-color="#FF0000"/>
<stop offset="1" stop-color="white" stop-opacity="0"/>
</linearGradient>
<linearGradient id="paint7_linear" x1="422.448" y1="206.175" x2="422.448" y2="276.766" gradientUnits="userSpaceOnUse">
<stop offset="0.9999" stop-color="#C2FBFF"/>
<stop offset="1" stop-color="white" stop-opacity="0"/>
</linearGradient>
<linearGradient id="paint8_linear" x1="357.51" y1="326.695" x2="357.51" y2="414.522" gradientUnits="userSpaceOnUse">
<stop stop-color="#FF0000"/>
<stop offset="1" stop-color="white" stop-opacity="0"/>
</linearGradient>
<linearGradient id="paint9_linear" x1="357.51" y1="326.695" x2="357.51" y2="414.522" gradientUnits="userSpaceOnUse">
<stop offset="0.9999" stop-color="#C2FBFF"/>
<stop offset="1" stop-color="white" stop-opacity="0"/>
</linearGradient>
<linearGradient id="paint10_linear" x1="232.979" y1="392.735" x2="232.979" y2="483" gradientUnits="userSpaceOnUse">
<stop stop-color="#FF0000"/>
<stop offset="1" stop-color="white" stop-opacity="0"/>
</linearGradient>
<linearGradient id="paint11_linear" x1="232.979" y1="392.735" x2="232.979" y2="483" gradientUnits="userSpaceOnUse">
<stop offset="0.9999" stop-color="#C2FBFF"/>
<stop offset="1" stop-color="white" stop-opacity="0"/>
</linearGradient>
<linearGradient id="paint12_linear" x1="108.444" y1="326.695" x2="108.444" y2="414.518" gradientUnits="userSpaceOnUse">
<stop stop-color="#FF0000"/>
<stop offset="1" stop-color="white" stop-opacity="0"/>
</linearGradient>
<linearGradient id="paint13_linear" x1="108.444" y1="326.695" x2="108.444" y2="414.518" gradientUnits="userSpaceOnUse">
<stop offset="0.9999" stop-color="#C2FBFF"/>
<stop offset="1" stop-color="white" stop-opacity="0"/>
</linearGradient>
<linearGradient id="paint14_linear" x1="43.5354" y1="206.138" x2="43.5354" y2="276.804" gradientUnits="userSpaceOnUse">
<stop stop-color="#FF0000"/>
<stop offset="1" stop-color="white" stop-opacity="0"/>
</linearGradient>
<linearGradient id="paint15_linear" x1="43.5354" y1="206.138" x2="43.5354" y2="276.804" gradientUnits="userSpaceOnUse">
<stop offset="0.9999" stop-color="#C2FBFF"/>
<stop offset="1" stop-color="white" stop-opacity="0"/>
</linearGradient>
<linearGradient id="paint16_linear" x1="108.403" y1="68.4519" x2="108.403" y2="156.273" gradientUnits="userSpaceOnUse">
<stop stop-color="#FF0000"/>
<stop offset="1" stop-color="white" stop-opacity="0"/>
</linearGradient>
<linearGradient id="paint17_linear" x1="108.403" y1="68.4519" x2="108.403" y2="156.273" gradientUnits="userSpaceOnUse">
<stop offset="0.9999" stop-color="#C2FBFF"/>
<stop offset="1" stop-color="white" stop-opacity="0"/>
</linearGradient>
<linearGradient id="paint18_linear" x1="232.5" y1="121" x2="232.5" y2="362" gradientUnits="userSpaceOnUse">
<stop offset="0.9999" stop-color="#1C3F60"/>
<stop offset="1" stop-color="white" stop-opacity="0"/>
</linearGradient>
<linearGradient id="paint19_linear" x1="232.5" y1="121" x2="232.5" y2="362" gradientUnits="userSpaceOnUse">
<stop offset="0.9999" stop-color="#0B1320"/>
<stop offset="1" stop-color="white" stop-opacity="0"/>
</linearGradient>
<linearGradient id="paint20_linear" x1="233" y1="263" x2="233" y2="314" gradientUnits="userSpaceOnUse">
<stop offset="0.9999" stop-color="#B1D4E0"/>
<stop offset="1" stop-color="white" stop-opacity="0"/>
</linearGradient>
<linearGradient id="paint21_linear" x1="234" y1="147" x2="234" y2="261" gradientUnits="userSpaceOnUse">
<stop offset="0.9999" stop-color="#B1D4E0"/>
<stop offset="1" stop-color="white" stop-opacity="0"/>
</linearGradient>
<linearGradient id="paint22_linear" x1="232.965" y1="113.497" x2="232.965" y2="369.427" gradientUnits="userSpaceOnUse">
<stop stop-color="#FF0000"/>
<stop offset="1" stop-color="white" stop-opacity="0"/>
</linearGradient>
<linearGradient id="paint23_linear" x1="232.965" y1="113.497" x2="232.965" y2="369.427" gradientUnits="userSpaceOnUse">
<stop offset="0.9999" stop-color="#C2FBFF"/>
<stop offset="1" stop-color="white" stop-opacity="0"/>
</linearGradient>
<linearGradient id="paint24_linear" x1="232.965" y1="0" x2="232.965" y2="90.1894" gradientUnits="userSpaceOnUse">
<stop stop-color="#FF0000"/>
<stop offset="1" stop-color="white" stop-opacity="0"/>
</linearGradient>
<linearGradient id="paint25_linear" x1="232.965" y1="0" x2="232.965" y2="90.1894" gradientUnits="userSpaceOnUse">
<stop offset="0.9999" stop-color="#C2FBFF"/>
<stop offset="1" stop-color="white" stop-opacity="0"/>
</linearGradient>
<linearGradient id="paint26_linear" x1="357.506" y1="68.4307" x2="357.506" y2="156.273" gradientUnits="userSpaceOnUse">
<stop stop-color="#FF0000"/>
<stop offset="1" stop-color="white" stop-opacity="0"/>
</linearGradient>
<linearGradient id="paint27_linear" x1="357.506" y1="68.4307" x2="357.506" y2="156.273" gradientUnits="userSpaceOnUse">
<stop offset="0.9999" stop-color="#C2FBFF"/>
<stop offset="1" stop-color="white" stop-opacity="0"/>
</linearGradient>
<linearGradient id="paint28_linear" x1="422.448" y1="206.175" x2="422.448" y2="276.766" gradientUnits="userSpaceOnUse">
<stop stop-color="#FF0000"/>
<stop offset="1" stop-color="white" stop-opacity="0"/>
</linearGradient>
<linearGradient id="paint29_linear" x1="422.448" y1="206.175" x2="422.448" y2="276.766" gradientUnits="userSpaceOnUse">
<stop offset="0.9999" stop-color="#C2FBFF"/>
<stop offset="1" stop-color="white" stop-opacity="0"/>
</linearGradient>
<linearGradient id="paint30_linear" x1="357.51" y1="326.695" x2="357.51" y2="414.522" gradientUnits="userSpaceOnUse">
<stop stop-color="#FF0000"/>
<stop offset="1" stop-color="white" stop-opacity="0"/>
</linearGradient>
<linearGradient id="paint31_linear" x1="357.51" y1="326.695" x2="357.51" y2="414.522" gradientUnits="userSpaceOnUse">
<stop offset="0.9999" stop-color="#C2FBFF"/>
<stop offset="1" stop-color="white" stop-opacity="0"/>
</linearGradient>
<linearGradient id="paint32_linear" x1="232.979" y1="392.735" x2="232.979" y2="483" gradientUnits="userSpaceOnUse">
<stop stop-color="#FF0000"/>
<stop offset="1" stop-color="white" stop-opacity="0"/>
</linearGradient>
<linearGradient id="paint33_linear" x1="232.979" y1="392.735" x2="232.979" y2="483" gradientUnits="userSpaceOnUse">
<stop offset="0.9999" stop-color="#C2FBFF"/>
<stop offset="1" stop-color="white" stop-opacity="0"/>
</linearGradient>
<linearGradient id="paint34_linear" x1="108.444" y1="326.695" x2="108.444" y2="414.518" gradientUnits="userSpaceOnUse">
<stop stop-color="#FF0000"/>
<stop offset="1" stop-color="white" stop-opacity="0"/>
</linearGradient>
<linearGradient id="paint35_linear" x1="108.444" y1="326.695" x2="108.444" y2="414.518" gradientUnits="userSpaceOnUse">
<stop offset="0.9999" stop-color="#C2FBFF"/>
<stop offset="1" stop-color="white" stop-opacity="0"/>
</linearGradient>
<linearGradient id="paint36_linear" x1="43.5354" y1="206.138" x2="43.5354" y2="276.804" gradientUnits="userSpaceOnUse">
<stop stop-color="#FF0000"/>
<stop offset="1" stop-color="white" stop-opacity="0"/>
</linearGradient>
<linearGradient id="paint37_linear" x1="43.5354" y1="206.138" x2="43.5354" y2="276.804" gradientUnits="userSpaceOnUse">
<stop offset="0.9999" stop-color="#C2FBFF"/>
<stop offset="1" stop-color="white" stop-opacity="0"/>
</linearGradient>
<linearGradient id="paint38_linear" x1="108.403" y1="68.4519" x2="108.403" y2="156.273" gradientUnits="userSpaceOnUse">
<stop stop-color="#FF0000"/>
<stop offset="1" stop-color="white" stop-opacity="0"/>
</linearGradient>
<linearGradient id="paint39_linear" x1="108.403" y1="68.4519" x2="108.403" y2="156.273" gradientUnits="userSpaceOnUse">
<stop offset="0.9999" stop-color="#C2FBFF"/>
<stop offset="1" stop-color="white" stop-opacity="0"/>
</linearGradient>
</defs>
</svg>
