<svg width="36" height="36" viewBox="0 0 36 36" fill="none" xmlns="http://www.w3.org/2000/svg">
<path d="M14.25 36H8.75C8.02099 35.999 7.32215 35.7247 6.80666 35.2373C6.29117 34.75 6.00109 34.0892 6 33.4V23H8.75V33.4H14.25V23H17V33.4C16.9989 34.0892 16.7088 34.75 16.1933 35.2373C15.6778 35.7247 14.979 35.999 14.25 36Z" fill="url(#paint0_linear)"/>
<path d="M30 23H27.5938L24.5 34.7403L21.464 23H19L22.4375 36H26.5625L30 23Z" fill="url(#paint1_linear)"/>
<path d="M17 0H19V6H17V0Z" fill="url(#paint2_linear)"/>
<path d="M25 8.98862L29.9882 4L32 6.0128L27.0118 11L25 8.98862Z" fill="url(#paint3_linear)"/>
<path d="M30 17H36V19H30V17Z" fill="url(#paint4_linear)"/>
<path d="M0 17H6V19H0V17Z" fill="url(#paint5_linear)"/>
<path d="M4 6.0128L6.01179 4L11 8.98862L8.98821 11L4 6.0128Z" fill="url(#paint6_linear)"/>
<path d="M26 19H23.3333V17.7143C23.3333 16.3503 22.7714 15.0422 21.7712 14.0777C20.771 13.1133 19.4145 12.5714 18 12.5714C16.5855 12.5714 15.229 13.1133 14.2288 14.0777C13.2286 15.0422 12.6667 16.3503 12.6667 17.7143V19H10V17.7143C10 15.6683 10.8429 13.7062 12.3431 12.2595C13.8434 10.8128 15.8783 10 18 10C20.1217 10 22.1566 10.8128 23.6569 12.2595C25.1571 13.7062 26 15.6683 26 17.7143V19Z" fill="url(#paint7_linear)"/>
<defs>
<linearGradient id="paint0_linear" x1="11.5" y1="23" x2="11.5" y2="36" gradientUnits="userSpaceOnUse">
<stop offset="0.9999" stop-color="#B1D4E0"/>
<stop offset="1" stop-color="white" stop-opacity="0"/>
</linearGradient>
<linearGradient id="paint1_linear" x1="24.5" y1="23" x2="24.5" y2="36" gradientUnits="userSpaceOnUse">
<stop offset="0.9999" stop-color="#B1D4E0"/>
<stop offset="1" stop-color="white" stop-opacity="0"/>
</linearGradient>
<linearGradient id="paint2_linear" x1="18" y1="0" x2="18" y2="6" gradientUnits="userSpaceOnUse">
<stop offset="0.9999" stop-color="#B1D4E0"/>
<stop offset="1" stop-color="white" stop-opacity="0"/>
</linearGradient>
<linearGradient id="paint3_linear" x1="28.5" y1="4" x2="28.5" y2="11" gradientUnits="userSpaceOnUse">
<stop offset="0.9999" stop-color="#B1D4E0"/>
<stop offset="1" stop-color="white" stop-opacity="0"/>
</linearGradient>
<linearGradient id="paint4_linear" x1="33" y1="17" x2="33" y2="19" gradientUnits="userSpaceOnUse">
<stop offset="0.9999" stop-color="#B1D4E0"/>
<stop offset="1" stop-color="white" stop-opacity="0"/>
</linearGradient>
<linearGradient id="paint5_linear" x1="3" y1="17" x2="3" y2="19" gradientUnits="userSpaceOnUse">
<stop offset="0.9999" stop-color="#B1D4E0"/>
<stop offset="1" stop-color="white" stop-opacity="0"/>
</linearGradient>
<linearGradient id="paint6_linear" x1="7.5" y1="4" x2="7.5" y2="11" gradientUnits="userSpaceOnUse">
<stop offset="0.9999" stop-color="#B1D4E0"/>
<stop offset="1" stop-color="white" stop-opacity="0"/>
</linearGradient>
<linearGradient id="paint7_linear" x1="18" y1="10" x2="18" y2="19" gradientUnits="userSpaceOnUse">
<stop offset="0.9999" stop-color="#B1D4E0"/>
<stop offset="1" stop-color="white" stop-opacity="0"/>
</linearGradient>
</defs>
</svg>
